<?xml version="1.0" standalone="no"?>
<!DOCTYPE svg PUBLIC "-//W3C//DTD SVG 20010904//EN"
 "http://www.w3.org/TR/2001/REC-SVG-20010904/DTD/svg10.dtd">
<svg version="1.0" xmlns="http://www.w3.org/2000/svg"
 width="4000.000000pt" height="4000.000000pt" viewBox="0 0 4000.000000 4000.000000"
 preserveAspectRatio="xMidYMid meet">
<metadata>
Created by potrace 1.14, written by Peter Selinger 2001-2017
</metadata>
<g transform="translate(0.000000,4000.000000) scale(0.100000,-0.100000)"
fill="#000000" stroke="none">
<path d="M29945 39829 c-75 -11 -130 -31 -202 -75 -30 -18 -81 -38 -112 -45
-31 -6 -61 -15 -68 -21 -6 -5 -24 -13 -40 -18 -15 -5 -72 -27 -125 -48 -53
-22 -115 -43 -137 -47 -23 -4 -43 -11 -46 -15 -10 -15 -108 -58 -185 -80 -41
-12 -96 -33 -122 -46 -27 -13 -54 -24 -61 -24 -7 0 -29 -9 -50 -20 -21 -11
-58 -23 -82 -27 -25 -3 -45 -9 -45 -13 0 -4 -17 -10 -37 -14 -21 -3 -54 -17
-74 -30 -20 -13 -53 -28 -75 -32 -21 -3 -46 -12 -54 -19 -8 -6 -49 -22 -90
-35 -41 -13 -91 -33 -110 -44 -37 -23 -113 -50 -170 -62 -19 -3 -41 -10 -50
-15 -37 -20 -146 -71 -160 -75 -8 -2 -40 -10 -71 -18 -31 -7 -77 -26 -102 -41
-26 -14 -90 -39 -144 -55 -132 -39 -165 -50 -184 -66 -8 -8 -31 -17 -50 -20
-19 -4 -43 -13 -54 -21 -11 -7 -28 -13 -37 -13 -10 0 -26 -4 -36 -9 -70 -38
-179 -83 -206 -85 -17 -2 -44 -10 -61 -18 -16 -8 -45 -18 -63 -21 -18 -4 -56
-18 -86 -32 -29 -14 -60 -25 -69 -25 -10 0 -17 -4 -17 -10 0 -5 -11 -10 -24
-10 -14 0 -28 -4 -31 -10 -3 -5 -13 -10 -22 -10 -8 0 -52 -17 -96 -39 -45 -21
-93 -42 -107 -46 -14 -3 -34 -10 -45 -14 -11 -4 -43 -15 -71 -24 -49 -16 -107
-41 -168 -74 -15 -8 -46 -18 -67 -20 -22 -3 -39 -10 -39 -14 0 -5 -11 -9 -25
-9 -13 0 -52 -13 -87 -29 -110 -51 -211 -88 -276 -102 -38 -8 -67 -20 -72 -30
-5 -9 -35 -24 -67 -33 -32 -10 -68 -22 -80 -28 -13 -6 -26 -9 -29 -5 -4 3 -18
-3 -32 -13 -13 -11 -33 -20 -42 -20 -10 0 -23 -7 -30 -15 -7 -8 -28 -17 -49
-21 -20 -4 -47 -12 -61 -19 -14 -7 -41 -16 -60 -19 -34 -7 -120 -44 -130 -57
-6 -8 -94 -35 -140 -44 -19 -4 -46 -14 -60 -23 -55 -37 -224 -97 -241 -87 -5
4 -19 -1 -31 -12 -11 -10 -23 -17 -27 -17 -11 2 -35 -7 -94 -37 -32 -16 -67
-29 -78 -29 -11 0 -33 -7 -48 -15 -16 -8 -61 -23 -101 -34 -40 -11 -95 -35
-123 -53 -29 -18 -63 -34 -77 -35 -39 -2 -112 -26 -150 -49 -19 -11 -51 -27
-70 -34 -19 -7 -40 -17 -45 -21 -14 -10 -88 -29 -140 -35 -22 -3 -55 -17 -73
-31 -38 -29 -112 -58 -172 -68 -22 -4 -42 -11 -46 -16 -3 -5 -12 -9 -21 -9 -8
0 -54 -18 -101 -41 -120 -56 -121 -56 -179 -69 -29 -7 -53 -16 -53 -21 0 -5
-9 -9 -20 -9 -11 0 -20 -4 -20 -10 0 -5 -19 -14 -42 -20 -24 -6 -55 -17 -70
-25 -14 -8 -33 -15 -42 -15 -21 0 -110 -31 -116 -40 -7 -11 -121 -52 -142 -52
-10 1 -20 -3 -23 -9 -4 -5 -13 -9 -21 -9 -9 0 -47 -16 -85 -35 -39 -19 -77
-35 -85 -35 -27 0 -273 -88 -288 -103 -9 -8 -30 -18 -48 -22 -46 -9 -101 -28
-112 -37 -6 -4 -16 -8 -24 -8 -21 0 -146 -55 -172 -76 -8 -7 -49 -20 -90 -29
-41 -10 -102 -32 -135 -50 -33 -17 -87 -39 -120 -49 -128 -36 -171 -51 -185
-61 -8 -6 -28 -17 -45 -24 -16 -7 -38 -17 -47 -22 -9 -5 -36 -12 -58 -15 -27
-5 -54 -18 -77 -40 -20 -19 -38 -34 -40 -34 -23 0 -201 -187 -213 -225 -6 -19
-24 -48 -39 -64 -16 -17 -32 -45 -36 -63 -4 -18 -8 -35 -9 -38 -1 -3 -7 -21
-13 -40 -6 -19 -14 -58 -17 -86 -12 -103 -41 -127 -221 -185 -64 -21 -120 -40
-292 -104 -34 -13 -91 -28 -127 -34 -110 -19 -163 -38 -277 -96 -10 -5 -19
-13 -19 -17 0 -5 -7 -8 -15 -8 -8 0 -39 -21 -68 -47 -30 -27 -66 -57 -80 -67
-15 -10 -27 -22 -27 -27 0 -9 -38 -70 -69 -110 -25 -32 -58 -114 -71 -177 -6
-26 -14 -56 -19 -67 -41 -90 -62 -204 -66 -370 -6 -235 13 -342 90 -520 7 -16
16 -41 20 -54 4 -13 22 -40 39 -60 18 -20 47 -57 65 -83 17 -26 42 -53 54 -59
12 -7 35 -25 52 -41 16 -16 66 -47 110 -69 44 -22 87 -44 95 -49 41 -23 121
-49 175 -55 33 -3 71 -11 85 -16 21 -8 70 -14 280 -33 19 -2 42 -6 50 -9 28
-11 274 -28 465 -32 341 -7 433 -18 474 -56 11 -10 24 -19 29 -19 5 0 29 -11
53 -24 24 -13 58 -27 75 -30 42 -9 123 -52 154 -81 14 -13 51 -37 82 -54 32
-16 66 -38 77 -48 11 -10 42 -26 68 -36 26 -10 61 -25 76 -32 16 -8 34 -15 40
-15 6 0 29 -9 52 -20 57 -27 190 -63 280 -75 11 -1 27 -5 35 -8 8 -4 49 -15
90 -26 41 -11 95 -27 119 -35 24 -9 82 -25 128 -36 46 -12 96 -26 111 -32 15
-6 38 -15 52 -20 14 -6 36 -16 50 -23 14 -7 45 -16 70 -20 25 -4 50 -11 55
-15 6 -4 34 -11 62 -15 29 -4 55 -11 59 -16 3 -5 13 -9 23 -9 9 0 39 -11 67
-24 44 -22 195 -69 267 -83 15 -3 27 -8 27 -12 0 -12 150 -58 320 -97 36 -8
72 -17 80 -19 8 -2 44 -11 80 -20 87 -21 114 -32 140 -60 29 -31 15 -57 -40
-75 -23 -8 -44 -20 -47 -27 -3 -7 -12 -13 -20 -13 -9 0 -37 -16 -64 -36 -27
-20 -49 -33 -49 -30 0 9 -147 -69 -160 -85 -3 -4 -45 -27 -95 -53 -92 -47
-126 -67 -135 -77 -3 -3 -41 -24 -84 -48 -44 -23 -86 -50 -93 -61 -8 -11 -26
-20 -40 -20 -25 0 -55 -16 -180 -97 -28 -18 -61 -33 -72 -33 -18 0 -70 -34
-138 -90 -7 -6 -16 -10 -20 -10 -13 0 -107 -51 -128 -70 -18 -16 -103 -58
-147 -73 -10 -4 -18 -11 -18 -16 0 -5 -24 -21 -52 -36 -29 -15 -60 -33 -68
-39 -8 -7 -24 -13 -36 -14 -21 -1 -84 -38 -114 -66 -18 -17 -158 -86 -175 -86
-7 0 -18 -7 -25 -15 -6 -8 -42 -31 -78 -51 -37 -20 -74 -43 -82 -50 -20 -17
-129 -74 -142 -74 -6 0 -41 -20 -77 -43 -36 -24 -91 -56 -121 -71 -30 -15 -62
-33 -70 -40 -31 -26 -92 -56 -144 -71 -30 -9 -57 -22 -60 -30 -3 -8 -12 -15
-20 -15 -7 0 -16 -7 -20 -15 -3 -8 -40 -31 -83 -51 -43 -20 -91 -47 -108 -60
-16 -12 -56 -34 -89 -48 -32 -14 -76 -42 -97 -61 -22 -19 -47 -35 -56 -35 -9
0 -25 -7 -34 -16 -10 -9 -31 -18 -46 -20 -15 -1 -32 -10 -39 -18 -6 -9 -16
-16 -23 -16 -6 0 -11 -4 -11 -8 0 -5 -33 -25 -72 -46 -40 -20 -86 -45 -103
-56 -16 -11 -37 -23 -45 -27 -8 -3 -17 -9 -20 -12 -3 -3 -19 -13 -35 -22 -92
-47 -141 -75 -153 -87 -13 -12 -95 -52 -106 -52 -3 0 -34 -17 -68 -38 -35 -21
-85 -49 -113 -62 -95 -46 -193 -126 -332 -275 -7 -7 -15 -25 -19 -39 -3 -15
-15 -33 -25 -39 -11 -7 -19 -17 -19 -24 0 -7 -4 -13 -9 -13 -5 0 -12 -24 -16
-52 -4 -29 -10 -57 -14 -63 -13 -22 -37 -154 -30 -171 9 -23 11 -186 3 -208
-3 -9 -12 -16 -20 -16 -8 0 -14 -6 -14 -14 0 -17 -92 -116 -108 -116 -17 0
-82 -60 -82 -76 0 -8 -5 -14 -10 -14 -14 0 -190 -174 -190 -187 0 -6 -17 -30
-38 -54 -21 -24 -60 -87 -86 -139 -27 -52 -55 -102 -62 -111 -8 -8 -14 -18
-14 -22 0 -3 -5 -18 -12 -34 -7 -15 -13 -32 -13 -38 -3 -22 -26 -102 -37 -125
-16 -37 -38 -145 -38 -190 0 -54 21 -230 30 -255 6 -17 11 -30 10 -30 -1 0 3
-20 10 -45 22 -82 52 -130 126 -203 75 -72 117 -96 212 -118 26 -6 56 -15 67
-19 68 -31 376 -53 420 -31 32 16 224 59 298 66 37 4 67 11 67 16 0 5 12 9 26
9 15 0 52 13 83 29 31 16 94 43 140 61 47 17 105 46 130 64 25 19 74 48 109
65 35 18 65 38 68 46 3 7 29 25 57 40 71 37 128 71 136 82 3 5 38 22 76 37 39
15 88 36 110 47 73 34 119 50 185 64 100 20 181 44 226 65 22 11 46 20 52 20
7 0 20 4 30 10 9 5 53 23 97 38 45 16 93 40 108 54 15 14 55 35 90 48 34 12
80 35 103 50 69 49 247 96 429 116 53 5 76 9 160 29 131 31 150 34 227 35 42
0 80 5 83 10 3 6 23 10 44 10 21 0 55 7 75 15 20 8 36 12 36 9 0 -4 6 -2 13 4
37 31 153 46 362 46 190 1 207 -2 257 -41 19 -16 55 -39 80 -52 25 -12 67 -41
94 -63 26 -21 57 -44 68 -50 12 -6 25 -17 29 -24 4 -8 14 -14 20 -14 7 0 31
-18 52 -40 21 -22 44 -40 50 -40 6 0 35 -25 64 -54 30 -30 66 -60 81 -66 15
-6 32 -22 38 -35 16 -35 44 -66 69 -76 12 -4 34 -26 48 -49 14 -22 30 -40 36
-40 37 0 97 -76 113 -144 8 -31 3 -36 -69 -83 -73 -48 -156 -120 -193 -168
-84 -111 -112 -152 -112 -166 0 -8 -9 -42 -19 -75 -53 -166 -54 -169 -46 -297
4 -67 10 -126 14 -132 4 -5 13 -30 20 -55 8 -25 20 -59 27 -77 8 -17 14 -35
14 -41 0 -13 125 -178 155 -206 13 -11 36 -43 51 -70 31 -57 30 -66 -11 -371
-24 -184 -24 -181 -68 -221 -40 -36 -40 -37 -109 -31 -76 7 -165 -6 -213 -30
-38 -19 -115 -93 -115 -110 0 -7 -4 -13 -8 -13 -5 0 -17 -17 -27 -37 -18 -35
-20 -68 -23 -431 l-4 -393 -56 -36 c-122 -77 -196 -126 -206 -134 -6 -5 -27
-22 -47 -39 -20 -16 -41 -30 -47 -30 -6 0 -12 -4 -14 -8 -1 -5 -25 -23 -53
-42 -45 -30 -142 -106 -155 -120 -3 -4 -15 -13 -28 -22 -59 -40 -371 -340
-436 -418 -119 -145 -203 -288 -258 -440 -107 -294 -117 -445 -38 -600 12 -23
26 -48 31 -54 4 -6 21 -27 37 -46 16 -19 35 -44 43 -56 25 -38 223 -214 344
-307 92 -71 136 -102 182 -129 30 -18 62 -38 71 -43 91 -55 272 -160 332 -192
111 -60 175 -95 274 -152 49 -28 93 -51 97 -51 8 0 13 -24 10 -44 -7 -35 0
-480 7 -489 5 -7 12 -175 15 -374 l5 -362 -36 -20 c-20 -12 -49 -26 -64 -32
-16 -6 -28 -18 -28 -27 -1 -24 -46 -73 -69 -75 -11 0 -17 -5 -15 -9 3 -5 -9
-20 -27 -35 -17 -15 -40 -46 -50 -70 -10 -24 -25 -46 -34 -49 -18 -7 -74 -90
-101 -149 -10 -22 -28 -56 -39 -75 -12 -19 -25 -48 -29 -63 -6 -24 -9 -27 -21
-17 -12 10 -15 9 -15 -9 0 -12 5 -19 10 -16 6 3 10 1 10 -5 0 -10 -42 -100
-82 -173 -11 -21 -22 -56 -25 -77 -6 -43 -16 -50 -32 -22 -11 19 -13 15 -25
-40 -5 -24 -3 -28 15 -28 16 0 20 -4 14 -17 -3 -10 -9 -31 -12 -48 -2 -16 -9
-43 -15 -58 -10 -26 -12 -27 -29 -11 -27 24 -74 4 -66 -28 3 -12 2 -30 -4 -40
-8 -15 -23 -18 -100 -18 -84 0 -200 -21 -224 -40 -5 -4 -24 -11 -42 -14 -17
-4 -37 -13 -43 -21 -6 -8 -44 -24 -83 -36 -40 -12 -79 -28 -88 -35 -8 -8 -40
-18 -69 -24 -53 -10 -139 -46 -150 -61 -3 -5 -37 -20 -75 -34 -39 -14 -79 -30
-90 -35 -11 -5 -49 -21 -85 -36 -36 -16 -67 -31 -70 -35 -3 -3 -21 -9 -40 -12
-118 -22 -169 -26 -290 -28 -94 0 -140 -5 -150 -14 -8 -7 -46 -15 -85 -19
-224 -21 -291 -25 -395 -26 -97 0 -287 -14 -480 -35 -62 -7 -339 -7 -370 0
-51 11 -329 19 -338 10 -3 -2 -21 3 -41 11 -20 8 -72 20 -116 25 -44 6 -87 16
-95 23 -8 8 -40 19 -70 26 -103 22 -130 33 -169 67 -22 18 -44 33 -50 33 -6 0
-16 9 -23 21 -7 11 -34 36 -60 55 -29 20 -48 42 -48 53 0 11 -9 22 -19 26 -25
8 -74 72 -66 85 12 20 -16 154 -43 210 l-27 55 0 235 c0 329 19 592 45 625 4
6 13 44 19 85 39 269 40 273 66 295 18 14 28 36 36 77 11 62 43 164 58 182 4
6 11 23 14 37 4 14 18 42 32 63 14 20 27 54 30 74 3 20 13 48 23 62 11 14 23
37 27 50 4 14 14 34 21 45 8 11 14 26 14 35 0 8 7 28 15 44 8 15 15 42 15 60
0 17 10 47 22 66 16 27 23 58 28 140 5 70 16 131 33 185 14 44 26 91 26 105 2
141 24 446 37 525 12 74 15 122 9 185 -4 47 -9 114 -10 148 -1 35 -7 80 -13
100 -6 21 -17 81 -25 136 -10 67 -22 108 -36 127 -12 16 -24 52 -29 81 -6 44
-11 54 -30 56 -16 3 -22 11 -24 30 -3 55 -5 77 -6 94 -1 9 -24 43 -52 75 -27
32 -50 63 -50 70 0 11 -58 105 -81 132 -7 7 -23 36 -37 62 -13 27 -30 49 -37
49 -25 0 -104 74 -141 132 -13 20 -32 39 -43 43 -10 3 -22 12 -25 20 -3 8 -15
15 -27 15 -12 0 -45 15 -73 34 -28 18 -63 36 -77 39 -15 4 -65 25 -113 47 -47
22 -92 40 -101 40 -8 0 -24 9 -36 21 -12 12 -37 22 -58 24 -84 5 -135 19 -155
40 -12 13 -50 33 -84 45 -35 13 -66 30 -70 39 -3 9 -21 33 -40 54 -18 22 -38
52 -44 67 -6 20 -19 31 -38 35 -16 4 -32 14 -35 24 -7 24 -105 125 -138 142
-14 8 -47 27 -72 42 -25 16 -67 32 -94 36 -26 4 -62 17 -79 29 -16 12 -44 22
-61 22 -16 0 -34 6 -38 13 -12 19 -119 57 -162 57 -27 0 -44 7 -61 25 -13 14
-32 25 -42 25 -29 0 -90 28 -112 52 -21 22 -38 88 -41 156 -1 34 -8 49 -33 72
-18 16 -32 34 -32 40 0 7 -9 23 -20 37 -11 14 -20 32 -20 40 0 8 -11 28 -25
45 -16 18 -25 42 -25 63 0 28 -4 33 -28 38 -24 5 -30 13 -41 56 -9 35 -25 62
-52 89 -21 22 -39 44 -39 49 0 17 -103 120 -126 127 -12 4 -27 20 -34 37 -7
16 -25 36 -40 44 -15 8 -30 20 -33 27 -2 7 -38 24 -78 38 -41 14 -75 28 -77
33 -2 4 -9 7 -15 7 -6 0 -25 13 -42 30 -25 24 -46 32 -119 45 -49 8 -97 15
-108 15 -10 0 -31 9 -46 20 -18 13 -57 23 -114 30 -47 6 -108 20 -135 32 -44
20 -65 22 -248 22 -221 0 -574 -12 -588 -21 -4 -3 -17 3 -27 12 -19 17 -21 16
-50 -15 -27 -29 -39 -33 -106 -41 -48 -5 -88 -16 -110 -30 -24 -15 -62 -24
-118 -30 -80 -8 -222 -55 -257 -85 -8 -8 -24 -14 -35 -14 -20 -1 -105 -29
-139 -46 -11 -6 -49 -19 -85 -29 -36 -11 -67 -22 -70 -25 -3 -3 -27 -16 -55
-30 -27 -13 -62 -37 -77 -52 -14 -16 -33 -28 -43 -28 -34 0 -134 -55 -137 -75
-2 -15 -16 -23 -49 -31 -26 -7 -56 -21 -68 -33 -12 -12 -26 -21 -31 -21 -6 0
-10 -6 -10 -12 0 -7 -12 -21 -28 -30 -15 -10 -62 -43 -105 -73 -48 -35 -84
-54 -94 -51 -10 4 -14 2 -10 -8 7 -17 -87 -107 -137 -133 -17 -8 -42 -26 -56
-39 -14 -13 -50 -45 -80 -71 -62 -54 -115 -108 -147 -150 -43 -56 -134 -143
-143 -138 -6 4 -10 -1 -10 -9 0 -8 -9 -18 -20 -21 -11 -3 -20 -10 -20 -14 0
-6 -78 -132 -98 -156 -4 -5 -14 -30 -22 -55 -8 -25 -25 -60 -37 -79 -13 -19
-23 -42 -23 -52 0 -10 -5 -21 -10 -24 -10 -6 -34 -57 -60 -125 -7 -19 -20 -43
-29 -54 -9 -10 -15 -21 -13 -25 6 -13 -22 -98 -49 -146 -16 -28 -31 -69 -34
-90 -9 -71 -37 -189 -53 -220 -8 -16 -26 -77 -39 -135 -14 -58 -31 -112 -38
-120 -8 -9 -23 -55 -35 -103 -11 -48 -26 -98 -34 -110 -7 -12 -16 -59 -19
-105 -4 -57 -10 -89 -22 -101 -8 -10 -18 -38 -20 -62 -24 -235 -24 -234 -96
-384 -10 -22 -23 -72 -28 -111 -6 -48 -18 -85 -35 -112 -14 -23 -26 -46 -26
-50 0 -15 -38 -130 -51 -154 -7 -13 -18 -27 -25 -33 -8 -5 -17 -35 -22 -65 -7
-48 -10 -55 -30 -54 -12 0 -21 -4 -20 -10 4 -26 -15 -75 -38 -96 -13 -13 -24
-29 -24 -35 0 -16 -48 -56 -91 -79 -21 -10 -45 -33 -55 -52 -10 -19 -27 -37
-36 -40 -10 -3 -18 -11 -18 -19 0 -7 -10 -15 -23 -19 -13 -3 -52 -34 -87 -68
-61 -59 -85 -75 -217 -144 -28 -15 -55 -37 -58 -48 -14 -44 -18 -73 -18 -118
0 -54 16 -77 113 -161 40 -36 69 -71 85 -105 14 -30 31 -52 39 -52 22 0 90
-50 111 -81 10 -14 47 -45 83 -69 35 -24 69 -52 75 -62 7 -10 19 -18 27 -18 9
0 21 -5 27 -11 15 -15 155 -38 173 -29 8 5 59 8 112 9 53 1 118 6 145 12 26 6
73 14 103 18 30 4 71 16 90 26 42 23 132 110 153 151 9 16 36 51 62 78 25 26
45 53 45 58 0 28 186 219 206 211 26 -10 38 -62 27 -116 -12 -57 -50 -167 -64
-182 -5 -5 -9 -19 -9 -32 0 -13 -11 -55 -25 -95 -14 -39 -24 -87 -24 -107 1
-21 -7 -51 -20 -72 -11 -20 -24 -62 -27 -95 -4 -34 -16 -77 -29 -99 -13 -22
-47 -87 -75 -145 -29 -58 -63 -116 -76 -130 -23 -25 -68 -123 -78 -172 -3 -15
-14 -29 -24 -32 -18 -7 -105 -118 -135 -173 -9 -18 -24 -33 -32 -33 -8 0 -15
-7 -15 -15 0 -8 -18 -32 -40 -54 -22 -22 -40 -46 -40 -55 0 -9 -9 -21 -20 -28
-11 -7 -20 -20 -20 -28 0 -8 -8 -29 -18 -45 -11 -17 -22 -47 -26 -67 -4 -24
-14 -39 -26 -43 -10 -3 -24 -21 -30 -39 -6 -19 -20 -42 -30 -51 -11 -10 -20
-23 -20 -30 0 -6 -11 -22 -24 -35 -14 -12 -28 -35 -31 -49 -4 -19 -16 -31 -39
-39 -24 -9 -37 -22 -46 -45 -6 -17 -22 -56 -36 -85 -13 -29 -24 -59 -24 -67 0
-7 -9 -16 -19 -20 -10 -3 -21 -13 -24 -23 -3 -9 -28 -72 -56 -140 -31 -75 -51
-138 -51 -161 0 -21 -6 -50 -13 -63 -15 -29 -63 -88 -72 -88 -4 0 -29 -25 -57
-55 -27 -30 -57 -55 -66 -55 -23 0 -82 -23 -82 -32 0 -4 -8 -8 -18 -8 -10 0
-23 -5 -29 -11 -7 -7 -51 -13 -100 -15 -118 -5 -157 -10 -181 -23 -29 -15
-210 -13 -312 4 -198 32 -216 36 -266 68 -28 18 -79 50 -114 72 -35 22 -93 67
-129 100 -92 84 -143 125 -153 125 -4 0 -8 6 -8 14 0 7 -12 22 -28 32 -37 24
-51 44 -52 73 0 13 -3 21 -7 18 -7 -8 -53 51 -53 69 0 14 -52 148 -82 212 -17
36 -20 56 -15 107 3 35 13 80 22 100 16 40 21 140 7 149 -5 3 -19 41 -32 85
-23 76 -26 82 -60 92 -19 7 -48 23 -65 37 -27 22 -35 24 -91 18 -35 -4 -74
-13 -89 -20 -23 -12 -31 -12 -56 2 -16 10 -29 20 -29 25 0 4 -6 7 -14 7 -8 0
-16 7 -20 15 -3 8 -11 15 -19 15 -7 0 -26 14 -42 30 -26 27 -29 38 -29 93 0
70 5 92 33 153 23 48 40 62 51 44 4 -7 7 -1 7 16 0 15 6 30 12 32 6 2 11 13
11 24 0 11 8 32 19 46 20 29 84 162 96 202 4 14 17 36 29 50 41 47 56 79 56
124 0 51 13 92 39 121 19 20 27 58 56 255 21 135 21 136 -12 326 -19 111 -33
166 -46 178 -9 10 -17 25 -17 34 0 9 -11 48 -24 85 -24 68 -26 127 -6 152 22
26 32 127 20 188 l-11 59 34 32 c47 43 63 126 48 246 -6 47 -14 108 -17 135
-4 28 -9 52 -13 55 -8 7 -23 39 -67 148 -20 51 -44 97 -53 102 -9 4 -25 34
-36 65 -19 55 -22 58 -75 78 -30 11 -57 23 -60 26 -9 12 -77 41 -95 41 -9 0
-26 5 -37 11 -11 6 -30 12 -42 14 -11 1 -44 6 -71 10 -41 6 -54 4 -64 -9 -20
-24 5 -76 63 -136 42 -43 50 -57 54 -99 2 -30 0 -51 -7 -55 -6 -4 -11 -27 -11
-52 0 -30 -5 -46 -15 -50 -35 -14 -55 -143 -59 -369 -1 -99 -1 -100 -43 -165
-25 -40 -45 -83 -49 -110 -3 -25 -13 -65 -21 -90 -8 -25 -15 -71 -14 -102 1
-31 -3 -59 -8 -62 -5 -3 -7 -14 -4 -25 7 -26 -29 -56 -90 -76 -28 -9 -64 -28
-80 -41 -16 -13 -32 -24 -37 -24 -4 0 -29 -22 -55 -49 -26 -27 -61 -55 -77
-62 -31 -13 -41 -7 -106 65 -9 10 -29 30 -43 43 -15 13 -30 38 -33 55 -3 18
-13 39 -21 47 -42 47 -53 60 -73 92 -19 32 -53 53 -115 73 -10 3 -24 21 -32
41 -16 37 -20 125 -7 141 17 19 32 94 32 161 0 60 5 78 33 129 32 59 32 60 30
184 -2 69 -10 158 -19 200 -20 92 -25 331 -7 337 7 2 9 11 7 18 -3 8 10 47 29
87 19 40 40 86 46 101 6 16 20 31 31 34 22 6 90 108 90 136 0 21 43 106 52
101 4 -3 8 5 8 18 0 13 5 29 11 35 12 12 10 27 -11 163 -9 56 -10 81 -1 100
24 52 62 115 75 122 8 4 28 37 45 73 18 37 43 76 57 87 32 28 30 48 -6 83 -27
26 -33 27 -77 20 -26 -4 -88 -9 -138 -9 -82 -2 -116 -10 -149 -37 -59 -47 -99
-77 -127 -94 -63 -38 -153 -85 -164 -85 -13 0 -35 -47 -35 -75 0 -25 -29 -55
-53 -55 -20 0 -87 -57 -87 -74 0 -7 -15 -28 -34 -47 -73 -75 -99 -112 -131
-190 -19 -45 -40 -89 -48 -98 -20 -23 -37 -92 -30 -123 11 -56 -20 -98 -72
-98 -19 0 -104 85 -115 116 -8 21 -16 24 -64 24 -54 0 -86 16 -86 44 0 24
-144 76 -213 76 -57 0 -58 -1 -89 -45 -32 -45 -83 -73 -114 -61 -8 3 -17 -1
-20 -9 -3 -8 -22 -17 -41 -21 -20 -4 -47 -19 -62 -33 -14 -15 -39 -33 -55 -41
-16 -8 -39 -31 -52 -52 -13 -20 -38 -48 -57 -62 -26 -20 -35 -36 -45 -84 -7
-32 -12 -73 -12 -90 0 -18 -4 -32 -9 -32 -10 0 -29 -43 -36 -82 -3 -15 -21
-58 -40 -95 -19 -37 -35 -82 -35 -98 0 -17 -9 -48 -20 -70 -25 -48 -26 -112
-3 -145 21 -29 41 -163 32 -208 -3 -17 -2 -35 3 -40 5 -5 11 -47 14 -92 4 -81
5 -83 44 -121 22 -22 40 -44 40 -50 0 -18 42 -103 69 -138 24 -32 26 -41 23
-123 -2 -71 1 -96 18 -132 11 -25 20 -58 20 -73 0 -30 25 -81 74 -154 30 -45
39 -114 21 -169 -9 -27 -30 -51 -42 -49 -4 1 -16 -1 -25 -5 -22 -10 -117 23
-138 47 -11 12 -39 20 -102 26 -74 7 -92 13 -122 37 -19 16 -38 37 -41 47 -9
25 -76 97 -90 97 -6 0 -22 11 -34 24 -13 13 -39 27 -58 31 -20 4 -37 13 -40
23 -2 9 -27 35 -54 56 l-49 39 4 56 c6 79 -25 192 -71 258 -48 70 -57 77 -102
75 -28 -1 -43 4 -58 21 -30 34 -80 128 -88 167 -4 19 -12 40 -17 47 -5 6 -8
38 -7 70 4 75 -18 113 -65 113 -36 -1 -76 -30 -76 -57 0 -10 -14 -47 -31 -83
-53 -113 -72 -213 -77 -421 -4 -175 -3 -191 21 -280 14 -52 31 -125 37 -164 6
-38 16 -75 22 -82 6 -7 8 -19 5 -27 -3 -8 -3 -17 1 -20 3 -4 7 -12 8 -19 6
-34 26 -68 53 -88 17 -12 34 -31 37 -42 9 -29 57 -96 69 -97 14 0 39 -39 45
-69 3 -13 14 -29 25 -35 11 -6 22 -13 25 -16 19 -19 72 -50 87 -50 46 -2 123
-31 195 -75 123 -75 214 -113 283 -116 46 -3 229 -59 241 -75 6 -8 16 -14 23
-14 6 0 11 -6 11 -13 0 -8 8 -21 18 -30 9 -9 26 -33 37 -54 10 -21 45 -65 76
-98 31 -33 59 -70 63 -83 4 -12 11 -22 16 -22 4 0 11 -12 15 -28 14 -56 64
-149 109 -200 43 -50 46 -58 46 -108 0 -86 -39 -124 -127 -124 -32 0 -44 -5
-123 -55 -19 -13 -59 -31 -89 -41 -34 -12 -56 -26 -61 -40 -5 -12 -15 -24 -24
-27 -8 -3 -24 -23 -34 -44 -11 -21 -29 -47 -41 -57 -12 -11 -21 -25 -21 -33 0
-13 -4 -24 -28 -70 -15 -29 -15 -37 3 -76 37 -80 49 -91 111 -105 43 -10 75
-12 119 -5 61 10 138 0 163 -20 7 -5 35 -20 62 -33 50 -23 74 -50 85 -95 3
-14 20 -33 36 -43 16 -9 36 -29 43 -44 8 -15 29 -43 47 -62 39 -43 82 -143 74
-173 -5 -17 -4 -19 4 -7 8 12 12 9 21 -15 12 -32 44 -148 56 -205 8 -34 9
-198 3 -495 -2 -144 -1 -154 29 -250 17 -55 36 -133 43 -172 8 -40 17 -73 21
-73 9 0 26 -62 30 -110 1 -19 8 -41 15 -48 7 -7 13 -24 13 -37 0 -26 26 -90
48 -116 7 -9 14 -29 16 -43 3 -28 62 -126 76 -126 5 0 12 -9 15 -20 4 -11 23
-40 43 -65 20 -24 55 -67 77 -96 56 -72 181 -199 227 -230 21 -14 35 -29 31
-34 -5 -4 2 -5 13 -1 26 8 78 -10 69 -24 -4 -6 -3 -10 2 -9 22 4 34 -3 44 -24
6 -12 25 -28 42 -35 45 -18 220 -104 232 -114 6 -5 23 -19 38 -33 15 -14 40
-25 55 -25 15 0 47 -11 72 -24 84 -44 212 -84 278 -85 22 -1 41 -10 57 -26 26
-29 72 -45 126 -45 20 0 65 -9 99 -20 157 -50 969 -53 1140 -5 119 34 256 77
271 85 9 5 47 12 85 15 69 7 69 7 86 -23 11 -19 29 -32 48 -36 17 -3 45 -19
61 -36 17 -16 34 -30 39 -30 5 0 31 -22 57 -50 64 -66 72 -75 83 -105 5 -14
15 -25 22 -25 16 0 41 -38 33 -50 -3 -6 1 -7 9 -4 10 4 24 -9 43 -38 15 -24
31 -44 35 -46 4 -2 12 -20 19 -40 7 -20 20 -48 30 -62 28 -39 51 -248 46 -410
-5 -143 -7 -160 -16 -160 -3 0 -7 -21 -8 -46 -1 -25 -6 -51 -12 -58 -5 -6 -13
-31 -17 -55 -4 -23 -20 -61 -35 -84 -16 -23 -29 -47 -29 -53 0 -10 -36 -70
-80 -134 -9 -14 -21 -37 -25 -50 -4 -14 -28 -44 -54 -68 -25 -24 -67 -63 -93
-88 -26 -24 -53 -44 -58 -44 -6 0 -8 -5 -5 -11 8 -12 -40 -59 -60 -59 -7 0
-16 -8 -19 -17 -4 -10 -27 -30 -54 -46 -26 -15 -62 -38 -80 -52 -18 -13 -63
-33 -99 -45 -37 -12 -80 -30 -95 -41 -15 -11 -56 -24 -90 -30 -61 -10 -73 -14
-128 -37 -14 -6 -42 -16 -62 -22 -21 -6 -38 -15 -38 -18 0 -9 -49 -32 -67 -32
-7 0 -13 -4 -13 -9 0 -5 -10 -12 -22 -15 -22 -6 -70 -74 -113 -161 -11 -22
-24 -43 -28 -46 -5 -3 -10 -17 -11 -30 -9 -66 -40 -134 -56 -124 -12 7 -23
-69 -15 -103 4 -20 1 -33 -11 -42 -9 -8 -20 -25 -25 -37 -5 -13 -23 -30 -42
-39 -31 -15 -67 -62 -67 -88 0 -16 -52 -66 -68 -66 -7 0 -17 -10 -23 -23 -15
-34 -127 -85 -259 -117 -32 -8 -103 -38 -140 -59 -8 -5 -42 -14 -75 -21 -33
-7 -87 -19 -120 -27 -33 -8 -104 -21 -158 -29 -54 -7 -106 -18 -115 -23 -10
-5 -55 -16 -100 -25 -45 -8 -97 -22 -115 -30 -19 -7 -54 -17 -78 -21 -24 -3
-57 -10 -74 -15 -16 -5 -68 -18 -115 -31 -47 -12 -89 -26 -95 -30 -5 -5 -24
-9 -41 -9 -18 0 -35 -4 -38 -9 -3 -5 -22 -12 -41 -15 -19 -4 -35 -11 -35 -16
0 -4 -21 -16 -47 -26 -27 -9 -52 -21 -58 -26 -5 -4 -14 -8 -21 -8 -11 0 -164
-96 -194 -122 -16 -14 -42 -31 -80 -50 -21 -11 -52 -37 -112 -96 -7 -7 -33
-34 -58 -60 -25 -27 -101 -108 -170 -181 -69 -73 -138 -152 -153 -175 -24 -35
-131 -247 -157 -311 -31 -74 -80 -218 -80 -233 0 -10 -5 -23 -11 -29 -6 -6
-14 -50 -19 -99 -5 -49 -14 -105 -20 -124 -16 -49 -18 -71 -25 -290 -4 -107
-8 -213 -10 -235 -2 -22 -4 -88 -4 -147 -1 -98 -3 -107 -18 -101 -10 4 -21 10
-24 15 -8 12 -52 36 -209 114 -74 37 -142 77 -151 87 -17 21 -39 16 -39 -9 0
-8 10 -14 24 -14 13 0 26 -6 29 -13 2 -7 31 -25 63 -41 33 -16 86 -42 119 -59
78 -40 85 -43 116 -55 15 -6 41 -32 58 -58 l32 -47 -1 -211 c-1 -263 -15 -501
-34 -586 -9 -36 -17 -101 -18 -145 -3 -72 -6 -84 -36 -124 -17 -24 -32 -53
-32 -64 0 -11 -6 -28 -13 -36 -8 -9 -19 -34 -25 -56 -6 -22 -25 -56 -42 -75
-16 -19 -30 -40 -30 -46 0 -7 -11 -19 -25 -28 -14 -9 -29 -34 -37 -58 -6 -24
-23 -61 -37 -83 -64 -101 -66 -114 -29 -170 26 -39 29 -50 23 -87 -4 -24 -20
-66 -36 -94 -16 -28 -29 -63 -29 -78 0 -14 -6 -26 -12 -26 -10 0 -10 -2 0 -8
10 -7 10 -15 1 -38 -7 -16 -14 -40 -16 -54 -2 -13 -18 -55 -34 -92 -49 -111
-82 -329 -99 -648 -9 -176 -14 -220 -29 -249 -5 -9 -14 -43 -21 -76 -7 -33
-18 -67 -24 -75 -20 -24 -37 -75 -38 -111 0 -19 -16 -68 -35 -109 -19 -41 -43
-93 -53 -115 -9 -22 -25 -57 -34 -77 -9 -21 -32 -50 -51 -65 -19 -16 -35 -34
-35 -40 0 -7 -9 -18 -20 -25 -11 -7 -39 -44 -62 -83 -53 -89 -62 -156 -27
-196 34 -37 61 -87 54 -99 -3 -5 0 -7 8 -4 7 2 27 -9 44 -26 31 -31 119 -70
161 -70 13 0 21 -3 19 -8 -3 -4 9 -8 26 -9 32 -1 98 -16 212 -48 84 -24 552
-16 592 10 13 9 26 15 28 13 9 -8 -35 -86 -69 -123 -20 -22 -60 -67 -89 -100
-29 -33 -67 -75 -86 -94 -18 -20 -44 -50 -58 -68 -14 -18 -30 -33 -35 -33 -11
0 -63 -36 -100 -69 -27 -24 -30 -24 -85 -12 -92 20 -162 24 -178 11 -8 -7 -22
-10 -30 -6 -26 10 -116 -26 -128 -51 -5 -12 -18 -25 -29 -29 -34 -10 -98 -57
-104 -76 -3 -10 -9 -18 -14 -18 -5 0 -11 -13 -15 -30 -4 -18 -15 -32 -28 -36
-58 -17 -112 -100 -127 -192 -5 -31 -15 -59 -22 -64 -7 -4 -19 -12 -27 -17 -8
-5 -15 -26 -16 -47 -1 -22 -3 -43 -4 -47 -2 -17 -108 -117 -123 -117 -20 0
-45 -29 -53 -61 -3 -14 -24 -44 -46 -65 -22 -21 -50 -50 -62 -63 -12 -13 -27
-29 -32 -35 -6 -6 -9 -22 -8 -36 1 -14 -5 -67 -14 -119 -13 -79 -14 -109 -4
-190 6 -53 13 -109 15 -126 2 -16 6 -37 9 -45 3 -8 8 -41 10 -73 3 -31 13 -71
21 -89 21 -40 20 -56 -3 -95 -17 -28 -18 -39 -9 -100 10 -71 39 -195 63 -273
7 -25 19 -70 25 -100 6 -30 33 -100 60 -155 27 -55 53 -120 57 -144 7 -40 12
-46 41 -53 21 -6 40 -20 50 -38 9 -16 27 -33 39 -39 11 -5 25 -20 28 -33 11
-35 82 -115 117 -133 17 -8 46 -15 64 -15 19 0 57 -9 86 -20 63 -24 63 -24 81
-6 23 24 5 109 -30 142 -26 24 -28 32 -29 102 -1 80 9 117 28 106 7 -4 8 -3 4
5 -9 13 129 155 161 165 12 4 35 31 52 61 17 29 35 56 41 60 5 3 10 19 10 36
0 31 16 67 39 84 7 6 15 33 18 61 3 27 10 55 16 62 5 7 7 15 4 19 -11 11 13
43 33 43 10 0 22 -9 25 -20 3 -11 9 -20 13 -20 4 0 21 -14 37 -30 17 -17 38
-38 48 -48 9 -9 17 -24 17 -33 0 -27 38 -53 81 -54 27 0 41 -5 44 -16 6 -17
46 -39 70 -39 8 0 15 -5 15 -10 0 -6 11 0 25 12 24 22 24 25 14 93 -24 153 8
223 128 280 40 19 78 35 82 35 5 0 14 14 21 31 13 30 58 70 93 82 12 5 17 18
17 49 0 24 5 50 10 58 5 8 10 11 10 5 0 -5 4 -4 9 4 16 26 38 -5 67 -96 16
-47 34 -87 41 -90 7 -3 13 -10 13 -17 0 -6 13 -27 30 -46 16 -19 29 -44 30
-55 0 -11 18 -42 40 -69 22 -26 40 -52 40 -57 0 -4 11 -20 25 -35 14 -15 25
-37 25 -49 0 -11 12 -36 27 -53 28 -35 120 -92 147 -92 9 0 22 -15 30 -35 8
-19 27 -51 41 -70 15 -19 24 -38 21 -43 -17 -27 166 -164 237 -177 21 -4 41
-14 44 -21 3 -8 8 -12 12 -10 4 3 51 -11 106 -30 112 -39 180 -43 285 -18 36
8 92 19 125 23 65 8 115 28 115 45 0 12 -63 56 -80 56 -22 0 -77 45 -73 60 3
11 2 12 -4 2 -8 -10 -16 -9 -41 4 -18 8 -32 20 -32 25 0 5 -5 9 -11 9 -6 0
-33 18 -60 41 -45 38 -49 44 -49 86 0 37 5 50 29 72 15 15 37 44 48 66 11 22
35 69 53 105 43 84 46 103 36 200 -3 25 -5 48 -5 51 -1 3 -9 14 -20 25 -10 11
-24 37 -31 58 -7 21 -18 50 -26 64 -9 17 -14 59 -14 113 0 94 -13 145 -38 154
-28 11 -73 72 -75 103 -1 17 -5 28 -9 26 -14 -9 -56 41 -61 71 -2 17 -12 64
-21 105 -10 41 -18 84 -20 95 -1 12 -6 26 -10 33 -10 17 20 58 54 72 29 12 70
6 70 -11 0 -5 8 -9 18 -9 10 0 23 -5 29 -11 6 -6 39 -13 74 -15 74 -4 110 10
214 82 35 24 118 50 190 60 28 4 61 11 74 16 15 5 35 5 50 -1 14 -5 47 -12 73
-16 41 -5 50 -11 70 -43 12 -20 33 -48 46 -62 13 -14 33 -45 44 -70 28 -60 48
-79 82 -73 30 6 59 -15 83 -60 12 -23 12 -38 3 -80 -6 -28 -14 -55 -18 -61 -5
-6 -15 -30 -22 -54 -8 -24 -27 -55 -44 -69 -43 -35 -48 -48 -34 -77 9 -20 19
-26 44 -26 18 0 34 4 36 10 2 5 32 25 68 43 56 28 67 38 81 76 8 23 30 54 47
68 29 22 32 30 32 79 0 47 4 59 26 79 15 14 33 25 40 25 20 0 31 28 39 95 5
34 17 71 28 87 17 23 19 36 13 97 -5 44 -4 71 2 71 6 0 10 101 10 263 0 231 2
268 19 312 24 64 67 95 133 95 75 0 115 -50 100 -125 -8 -43 5 -143 22 -163 8
-9 15 -44 17 -78 2 -54 -2 -70 -34 -135 -21 -41 -43 -81 -50 -89 -7 -8 -18
-62 -25 -120 -10 -94 -17 -134 -26 -165 -16 -51 -24 -107 -28 -199 -3 -61 -10
-114 -16 -120 -5 -5 -10 -41 -10 -79 0 -37 -5 -78 -12 -90 -22 -41 -29 -93
-33 -227 -5 -137 -14 -219 -35 -300 -13 -51 -19 -81 -25 -128 -2 -18 -15 -47
-28 -65 -14 -17 -30 -57 -37 -87 -8 -32 -29 -79 -52 -112 -22 -31 -43 -71 -48
-90 -29 -117 -56 -187 -72 -191 -13 -4 -18 -15 -18 -39 -1 -52 -26 -155 -45
-184 -20 -30 -67 -79 -106 -109 -15 -12 -34 -35 -42 -52 -9 -17 -32 -41 -52
-53 -39 -24 -54 -46 -60 -88 -7 -42 -50 -191 -79 -271 -9 -24 -16 -56 -16 -71
0 -15 -13 -44 -30 -65 -16 -21 -30 -44 -30 -51 0 -8 -4 -14 -9 -14 -5 0 -26
-16 -47 -35 -20 -19 -41 -35 -46 -35 -12 0 -67 -63 -68 -77 0 -14 -71 -83 -85
-83 -5 0 -21 -12 -34 -25 -13 -14 -29 -25 -36 -25 -7 0 -20 -15 -28 -33 -9
-18 -25 -41 -36 -51 -10 -10 -22 -28 -25 -41 -3 -13 -15 -27 -26 -30 -11 -3
-20 -13 -20 -21 0 -8 -5 -14 -11 -14 -15 0 -49 -39 -49 -57 0 -7 -4 -13 -10
-13 -5 0 -10 -4 -10 -10 0 -5 -19 -40 -42 -77 -23 -38 -54 -110 -70 -163 -29
-95 -71 -159 -108 -160 -8 0 -28 -18 -44 -40 -16 -21 -33 -37 -38 -34 -5 3 -7
1 -6 -4 2 -5 -35 -48 -82 -95 -47 -47 -92 -94 -101 -104 -9 -10 -44 -44 -78
-77 -34 -32 -70 -70 -79 -85 -9 -14 -30 -37 -45 -50 -43 -36 -123 -161 -131
-203 -4 -21 -2 -55 4 -76 8 -32 18 -42 50 -57 22 -10 45 -24 51 -32 13 -15
139 -19 139 -4 0 10 72 41 97 41 9 0 21 7 27 15 6 8 41 25 77 38 37 13 84 34
105 48 53 34 94 50 105 43 6 -3 18 1 27 9 9 8 44 28 77 43 33 16 68 37 77 46
10 10 24 18 32 18 7 0 25 15 40 34 24 32 31 35 101 41 47 5 84 14 98 25 12 9
32 20 45 24 12 4 22 11 22 16 0 5 13 11 29 15 16 3 37 15 47 26 9 10 25 19 35
19 23 0 72 21 81 36 4 6 25 19 47 29 22 10 43 26 46 35 7 21 80 50 143 57 23
3 42 9 42 13 0 13 103 59 149 66 23 4 47 14 54 24 16 22 63 52 103 66 47 16
133 75 139 95 3 10 15 21 26 24 10 4 30 21 44 40 14 18 38 36 53 40 37 9 52
24 52 51 0 22 25 38 59 39 8 0 18 13 22 28 11 41 25 54 65 62 19 3 38 13 41
21 3 7 10 14 16 14 5 0 24 11 41 24 17 12 45 30 62 39 18 9 34 27 38 41 3 14
15 28 27 31 36 12 85 49 110 83 13 19 30 39 37 45 8 7 33 31 57 55 24 23 47
42 52 42 5 0 8 12 5 28 -2 19 3 34 20 49 39 38 88 86 121 120 21 22 42 33 60
33 34 0 107 72 138 137 11 24 26 43 32 43 23 0 137 138 143 172 4 18 13 39 22
45 8 7 17 29 19 49 7 70 38 96 126 109 26 4 47 13 47 19 0 24 66 77 104 83 22
3 41 14 47 26 12 21 68 98 99 135 11 13 20 30 20 37 0 8 8 16 18 20 25 7 45
77 37 125 -6 35 -3 41 37 79 23 23 59 46 80 52 21 5 44 17 50 25 18 21 33 35
101 90 38 31 60 57 64 76 3 15 9 28 14 28 4 0 25 18 45 40 21 22 47 43 59 46
29 7 54 80 62 175 3 41 10 80 16 87 5 7 32 12 63 12 45 0 59 5 87 30 19 16 39
30 45 30 11 0 30 17 84 76 14 16 38 37 52 47 14 9 31 35 37 56 8 28 26 50 60
76 41 31 52 46 65 94 26 91 54 171 66 191 10 15 8 34 -6 90 l-19 70 27 25 c15
14 24 25 20 25 -17 0 34 37 60 44 61 15 158 146 177 239 6 29 15 56 20 61 5 6
9 18 9 28 0 25 29 68 46 68 13 0 27 22 59 90 18 38 24 74 30 163 3 48 8 62 33
85 28 26 52 84 52 125 0 28 46 40 135 32 111 -9 288 -10 430 -2 233 14 278 18
288 24 5 3 28 7 52 9 23 2 62 10 86 19 24 9 64 18 89 21 25 4 52 10 61 15 9 4
26 5 38 2 13 -3 29 1 40 11 11 10 45 18 97 22 43 4 87 11 97 16 45 23 207 4
229 -27 4 -5 8 -6 8 -1 0 4 10 2 23 -7 13 -8 65 -20 117 -27 52 -7 100 -16
105 -20 15 -12 222 -80 243 -80 10 0 22 -3 26 -7 3 -4 17 -8 29 -10 63 -8 87
-15 87 -25 0 -5 7 -7 16 -4 19 7 70 -4 56 -13 -5 -3 18 -7 52 -8 33 -1 99 -9
146 -18 291 -55 877 -49 1135 10 38 9 79 14 91 11 13 -4 26 -2 29 4 3 5 33 10
66 10 32 0 59 4 59 10 0 12 65 30 108 30 18 0 45 6 60 14 27 14 170 46 228 51
43 4 74 15 74 26 0 5 11 9 24 9 12 0 43 11 67 23 24 13 69 32 99 42 30 9 65
23 77 31 12 7 52 18 89 24 48 8 74 17 89 34 12 13 38 26 59 30 20 4 40 14 43
22 3 7 11 14 19 14 8 0 14 3 14 8 0 4 30 18 65 32 36 13 75 33 86 43 24 22
109 57 139 57 11 0 20 7 20 15 0 8 5 15 11 15 6 0 31 21 55 47 41 43 54 53
109 83 11 6 31 27 45 46 14 19 46 46 72 60 34 17 52 34 63 59 10 25 25 40 50
51 25 10 41 26 50 49 8 18 32 46 54 62 22 15 49 45 61 65 12 21 28 38 36 38 8
0 14 8 14 18 0 10 11 24 24 31 13 7 33 31 45 52 12 21 26 39 32 39 5 0 9 5 9
10 0 12 41 59 113 130 26 26 47 52 47 59 0 6 5 11 10 11 6 0 10 7 10 15 0 8 9
19 20 25 11 6 22 21 26 34 3 13 17 34 30 47 13 12 24 27 24 34 0 6 9 17 20 25
11 8 20 20 20 26 0 6 7 17 15 24 8 7 15 26 15 43 0 25 36 95 61 117 9 8 48 96
55 124 3 14 10 26 16 26 5 0 6 5 3 10 -4 7 3 8 21 4 29 -7 63 -40 64 -61 0 -6
6 -18 13 -25 23 -25 57 -77 57 -87 0 -6 18 -20 41 -32 29 -14 46 -32 58 -59
10 -25 31 -49 59 -66 23 -15 42 -30 42 -34 0 -3 24 -14 54 -23 30 -10 59 -24
66 -32 7 -8 21 -15 31 -15 10 0 21 -5 24 -10 4 -7 93 -9 248 -8 l242 3 33 33
c20 20 39 31 48 28 8 -3 13 -2 10 3 -10 15 45 52 92 61 26 4 128 9 226 9 200
0 270 6 336 28 25 8 56 15 69 15 40 1 88 25 128 66 36 37 239 172 259 172 5 0
31 30 58 67 27 36 57 68 67 70 10 3 21 13 24 22 7 23 50 71 64 71 6 0 11 6 11
13 0 21 101 118 139 134 92 40 222 66 258 52 48 -18 273 33 273 63 0 4 6 8 14
8 7 0 24 8 37 19 13 10 42 24 64 31 41 14 65 31 65 49 0 6 14 17 30 26 17 9
30 19 30 24 0 5 19 21 43 35 68 41 231 214 261 279 15 31 36 63 46 70 22 15
40 57 40 94 0 14 7 39 15 56 8 18 26 99 39 181 15 89 31 155 41 165 8 10 15
23 15 30 0 27 31 70 67 91 57 34 168 40 224 11 32 -17 44 -19 55 -10 11 9 24
9 55 0 27 -8 44 -9 52 -2 7 5 52 14 102 19 102 12 104 13 135 108 12 35 25 66
30 69 5 3 12 30 16 61 6 48 4 58 -15 78 -27 29 -22 64 13 91 l27 20 47 -26
c26 -14 52 -35 57 -46 10 -20 83 -92 117 -117 16 -12 18 -52 22 -487 3 -261 9
-640 14 -842 6 -203 13 -531 16 -730 4 -199 9 -375 12 -392 13 -75 16 -166 5
-178 -13 -17 -12 -217 2 -235 6 -8 13 -139 18 -330 4 -174 11 -472 15 -662 8
-312 11 -1447 4 -1545 -3 -50 18 -226 29 -240 5 -5 11 -31 15 -56 4 -27 15
-54 27 -65 11 -10 29 -34 41 -53 33 -56 59 -80 107 -102 25 -11 48 -23 51 -27
3 -4 32 -20 64 -37 45 -22 79 -30 140 -35 45 -3 91 -11 103 -18 27 -15 259
-17 328 -3 50 11 137 49 143 64 2 4 17 7 33 7 16 0 37 4 47 9 9 5 37 17 62 27
58 23 164 105 221 170 54 62 71 79 132 137 40 38 47 50 48 83 0 22 2 50 4 64
2 14 11 102 20 195 15 145 16 191 6 315 -7 80 -16 288 -21 462 -4 174 -11 322
-15 328 -9 15 -16 294 -27 1155 -5 430 -12 724 -19 745 -6 22 -13 389 -19 985
-10 1103 -15 1409 -24 1424 -4 6 -9 156 -12 333 -3 178 -10 337 -15 353 -5 17
-9 185 -9 375 0 190 0 352 -1 360 -2 41 -20 725 -25 930 -3 129 -7 323 -10
430 -3 107 -9 470 -14 805 -5 336 -10 617 -11 625 -1 8 -2 62 -2 120 -1 537
-8 944 -17 955 -5 6 -11 192 -15 415 -9 560 -17 829 -27 1005 -16 277 -17 373
-5 383 7 5 26 12 42 15 99 18 262 95 317 150 10 9 23 17 29 17 6 0 42 20 79
45 42 28 79 45 97 45 21 0 42 11 66 34 20 19 47 42 59 53 33 26 54 63 61 106
3 22 18 54 32 73 14 19 31 49 37 67 6 17 15 37 20 43 4 6 21 38 37 70 46 91
61 298 29 374 -46 108 -67 130 -168 182 -59 30 -60 31 -60 72 0 36 6 49 37 79
20 21 42 37 50 37 7 0 13 6 13 13 0 17 57 71 96 91 33 16 53 46 31 46 -9 0 -9
2 -1 8 20 13 56 85 75 152 20 68 27 203 15 276 -6 36 -12 43 -36 48 -23 4 -30
12 -35 39 -4 20 -17 40 -34 52 -16 10 -34 27 -41 38 -10 17 -9 22 4 29 9 5 16
14 16 20 0 7 10 31 21 56 20 40 20 48 8 84 -11 34 -11 44 4 71 9 18 21 44 26
60 6 15 16 27 22 27 8 0 10 15 6 48 -8 65 -38 194 -50 209 -17 23 -47 87 -42
91 8 8 -23 56 -63 100 -22 23 -43 49 -46 57 -3 9 -14 18 -23 22 -10 4 -20 9
-23 12 -3 3 -31 26 -63 50 -32 24 -60 47 -62 52 -3 4 1 27 9 51 53 159 100
370 122 538 15 125 21 559 8 618 -41 178 -128 286 -361 442 -72 49 -157 100
-187 114 -31 14 -89 41 -128 60 -40 18 -91 40 -113 47 -22 7 -44 16 -49 20 -4
4 -12 301 -17 661 -4 359 -11 709 -16 778 -7 120 -10 314 -6 430 2 67 -14
1236 -20 1445 -4 140 -23 284 -46 344 -5 14 -17 53 -27 86 -15 53 -77 155 -94
155 -4 0 -12 11 -18 25 -6 14 -35 40 -65 59 -29 19 -59 41 -66 49 -7 9 -53 30
-102 48 -101 36 -105 42 -97 132 4 41 15 67 56 127 27 41 71 95 96 120 25 24
46 49 46 56 0 15 70 78 111 100 33 17 112 33 186 39 23 2 47 6 53 10 7 4 35 9
63 10 29 2 75 6 102 10 28 3 61 7 75 8 14 1 29 8 33 14 4 7 18 12 30 12 12 -1
69 3 126 10 57 6 129 11 161 11 33 0 62 5 66 11 3 6 15 8 26 6 11 -3 50 1 86
10 37 8 96 16 132 17 36 2 83 8 105 13 79 22 181 36 245 35 35 0 71 4 78 10
12 11 68 16 237 21 44 2 85 6 90 9 6 3 39 9 75 13 60 7 166 27 215 42 24 7
229 30 378 43 59 5 117 12 130 16 12 4 33 9 47 10 62 9 209 34 245 43 22 6 60
11 86 11 25 0 49 4 55 9 5 5 56 12 114 16 58 3 141 10 185 15 44 5 118 14 165
19 47 6 105 15 130 20 114 25 142 29 243 35 60 3 113 9 119 13 15 9 205 31
373 44 88 6 160 17 194 30 31 10 63 19 73 19 10 0 18 3 18 8 0 4 21 8 48 9
161 7 342 23 367 33 17 6 77 13 134 16 57 2 108 7 115 11 10 7 24 9 121 16 22
2 56 11 75 20 35 16 189 36 325 43 91 4 212 22 237 35 11 6 48 12 83 13 34 2
69 7 76 12 8 5 75 14 149 21 74 6 160 15 190 18 30 4 80 8 110 9 30 1 62 5 70
8 24 10 112 21 150 19 31 -1 125 16 220 40 35 9 198 29 275 33 22 2 56 6 75
10 54 10 240 28 288 27 23 -1 42 3 42 8 0 5 24 12 53 15 28 4 84 10 122 14 39
5 82 13 96 20 15 6 29 8 32 5 4 -3 43 2 89 10 46 9 148 19 228 22 80 3 159 10
175 15 17 5 66 14 109 20 44 7 86 16 95 20 9 5 48 14 86 20 98 15 115 17 248
31 64 6 117 15 117 18 0 4 22 13 49 20 27 7 62 23 78 37 15 13 38 24 51 24 12
0 31 9 42 20 11 11 25 20 31 20 9 0 129 117 129 126 0 8 66 100 78 110 8 5 20
32 27 60 7 27 23 85 36 129 12 44 23 98 23 121 1 23 7 49 15 58 12 14 12 21 1
44 -7 15 -14 55 -15 88 -2 36 -9 72 -19 86 -9 14 -18 38 -21 54 -5 37 -43 117
-61 127 -8 4 -14 12 -14 18 0 25 -112 148 -136 149 -6 0 -24 18 -38 39 -27 39
-46 53 -76 56 -8 1 -33 13 -55 26 -46 27 -122 56 -182 69 -74 16 -264 14 -319
-3 -27 -8 -56 -16 -64 -16 -76 -4 -249 -24 -265 -31 -24 -11 -261 -40 -540
-66 -27 -2 -57 -6 -65 -8 -8 -1 -33 -6 -55 -11 -22 -4 -44 -10 -50 -14 -5 -3
-21 -6 -35 -7 -14 -1 -77 -9 -140 -18 -131 -19 -152 -21 -310 -36 -63 -5 -126
-12 -140 -15 -14 -2 -74 -11 -135 -19 -197 -26 -319 -45 -360 -55 -48 -12
-232 -33 -330 -37 -93 -5 -208 -23 -215 -35 -6 -8 -127 -25 -245 -34 -27 -2
-97 -11 -155 -19 -58 -9 -119 -17 -137 -20 -18 -2 -90 -7 -160 -10 -80 -5
-154 -14 -198 -27 -38 -11 -86 -25 -105 -30 -19 -5 -100 -14 -180 -20 -175
-11 -180 -12 -300 -38 -52 -11 -133 -23 -180 -27 -47 -4 -89 -10 -95 -14 -5
-5 -44 -11 -85 -14 -41 -3 -95 -13 -120 -20 -26 -8 -110 -17 -195 -20 -165 -6
-241 -14 -268 -28 -10 -5 -57 -11 -105 -13 -48 -2 -100 -8 -117 -15 -16 -6
-38 -9 -49 -6 -24 6 -116 -12 -134 -27 -7 -5 -41 -11 -75 -12 -34 -1 -69 -5
-77 -8 -8 -4 -55 -9 -105 -12 -223 -13 -271 -17 -283 -28 -8 -6 -32 -12 -53
-13 -22 -1 -45 -7 -52 -12 -7 -6 -41 -12 -77 -15 -36 -3 -94 -8 -130 -11 -36
-3 -85 -6 -108 -6 -24 1 -49 -3 -55 -8 -16 -12 -130 -31 -187 -30 -44 0 -138
-12 -250 -32 -30 -5 -104 -15 -165 -21 -60 -6 -119 -15 -130 -19 -25 -11 -74
-19 -140 -25 -27 -3 -69 -7 -91 -11 -26 -4 -44 -2 -48 5 -4 6 -15 11 -24 11
-27 1 -69 42 -80 80 -6 19 -16 73 -22 120 -6 47 -13 94 -15 105 -3 11 -10 45
-16 75 -6 30 -14 62 -17 70 -16 46 -46 153 -57 210 -22 113 -59 236 -104 349
-12 30 -29 84 -37 119 -8 36 -32 97 -52 136 -20 39 -38 76 -39 81 -12 54 -35
118 -56 155 -34 61 -72 138 -88 178 -6 18 -34 63 -60 98 -27 36 -51 75 -55 87
-4 12 -24 42 -45 66 -22 24 -39 48 -39 54 0 9 -75 115 -90 127 -3 3 -17 21
-30 40 -13 19 -48 61 -78 92 -30 31 -61 72 -70 90 -10 18 -27 38 -39 44 -33
16 -64 46 -74 71 -4 12 -26 34 -48 47 -22 14 -45 36 -52 48 -17 33 -170 188
-197 198 -12 5 -27 21 -32 34 -5 14 -36 43 -69 66 -80 54 -108 109 -81 160 11
21 64 54 105 64 16 4 51 25 78 47 28 22 82 54 121 73 39 18 80 42 91 52 23 21
89 54 109 54 7 0 44 23 82 50 38 28 73 50 79 50 14 0 146 68 166 86 8 8 47 30
85 49 38 20 96 53 129 74 95 61 162 68 275 28 41 -15 91 -32 110 -38 19 -6 49
-16 65 -24 62 -28 182 -52 305 -61 201 -14 291 -24 307 -33 10 -6 41 -15 68
-21 28 -6 57 -12 65 -15 34 -10 97 -25 129 -31 18 -3 47 -14 65 -25 17 -10 39
-19 49 -19 9 0 17 -4 17 -9 0 -5 41 -30 91 -55 51 -25 106 -56 123 -70 17 -13
63 -39 101 -59 39 -19 86 -46 105 -59 39 -26 74 -43 170 -83 129 -55 164 -64
235 -65 78 0 97 9 161 76 65 68 70 81 88 234 17 140 44 270 72 343 8 20 18 54
23 75 39 157 73 282 85 312 14 34 24 81 31 145 2 17 11 84 20 150 8 66 18 145
22 175 8 71 36 128 71 141 15 6 35 15 45 21 28 14 163 38 217 38 27 0 51 4 54
9 3 5 31 12 61 16 31 3 68 13 83 21 15 7 35 14 44 14 9 0 20 4 23 10 3 5 29 9
58 9 29 -1 93 6 142 15 50 9 133 23 185 32 52 8 100 20 106 25 13 11 133 37
234 50 41 6 98 17 125 24 28 7 70 16 95 20 24 3 49 10 55 14 16 12 105 32 115
26 5 -3 18 -1 28 4 11 6 62 15 113 22 52 6 101 15 110 19 8 5 34 11 56 13 66
8 216 38 238 47 21 10 123 31 165 35 14 1 37 6 51 9 14 4 59 11 100 16 136 16
204 30 251 50 26 11 60 20 77 20 17 0 31 4 31 9 0 5 10 9 23 9 45 -1 173 14
197 23 14 5 65 13 114 19 48 5 93 13 100 19 6 5 27 12 46 16 19 4 40 11 45 15
11 8 88 19 180 26 33 2 69 8 80 13 11 5 49 14 85 20 36 5 76 13 90 17 14 3 54
11 90 16 36 6 67 14 70 18 4 6 93 24 175 35 119 16 326 54 338 62 6 3 20 8 31
9 12 2 50 11 86 20 77 19 219 43 275 48 54 4 98 14 170 36 97 30 137 39 198
45 31 3 97 13 145 21 48 8 113 19 144 24 32 4 61 11 66 14 12 7 120 37 152 42
24 3 214 35 315 53 28 5 75 20 105 34 30 14 95 42 144 63 57 24 91 45 98 59 5
12 24 30 41 40 39 22 76 64 77 87 0 9 9 19 19 23 11 3 18 12 15 19 -3 7 2 16
10 19 17 7 86 143 86 170 0 22 21 67 32 67 4 0 8 19 8 43 -1 23 2 62 6 86 3
24 2 60 -4 80 -6 20 -18 80 -28 134 -9 53 -20 97 -24 97 -5 0 -11 18 -15 40
-4 25 -19 52 -38 73 -41 42 -58 65 -76 100 -8 15 -40 49 -70 75 -31 25 -60 52
-64 59 -4 7 -16 13 -26 13 -10 0 -36 13 -58 29 -62 45 -101 62 -173 77 -75 16
-338 19 -384 4 -17 -5 -67 -16 -111 -24 -74 -15 -141 -30 -240 -55 -60 -15
-195 -34 -237 -32 -20 0 -40 -4 -43 -9 -3 -6 -19 -10 -35 -10 -16 0 -32 -4
-35 -10 -3 -5 -16 -9 -28 -9 -36 1 -181 -23 -192 -31 -5 -4 -26 -11 -45 -15
-19 -3 -55 -13 -80 -20 -46 -14 -210 -36 -265 -35 -16 0 -39 -4 -50 -9 -73
-32 -158 -58 -177 -53 -4 1 -28 -3 -55 -9 -78 -17 -175 -30 -225 -29 -25 0
-49 -4 -53 -10 -3 -5 -17 -10 -31 -10 -13 0 -51 -11 -84 -25 -33 -14 -71 -25
-85 -25 -14 0 -33 -4 -43 -9 -9 -5 -57 -14 -107 -19 -106 -12 -251 -38 -280
-51 -11 -5 -47 -12 -79 -16 -33 -3 -65 -10 -71 -15 -6 -5 -53 -14 -104 -20
-51 -6 -101 -14 -110 -19 -9 -5 -45 -12 -81 -15 -36 -4 -69 -11 -75 -15 -5 -5
-42 -11 -82 -14 -40 -3 -128 -21 -195 -40 -78 -22 -158 -37 -218 -42 -62 -4
-120 -15 -170 -32 -41 -15 -93 -28 -115 -29 -22 -1 -60 -7 -85 -14 -25 -6 -61
-13 -80 -15 -19 -2 -64 -8 -100 -14 -36 -7 -74 -12 -85 -12 -35 -1 -105 -21
-105 -30 0 -5 -19 -9 -43 -9 -24 0 -47 -3 -51 -7 -16 -16 -80 -31 -142 -32
-37 -1 -73 -6 -79 -11 -7 -5 -38 -14 -71 -19 -32 -6 -84 -15 -114 -21 -30 -6
-81 -13 -113 -14 -39 -3 -65 -10 -78 -22 -40 -37 -199 -11 -199 32 0 8 -4 14
-10 14 -5 0 -10 6 -10 14 0 8 -24 44 -52 80 -29 36 -62 80 -73 97 -11 18 -33
37 -50 42 -16 6 -34 14 -40 18 -5 5 -24 20 -41 34 -18 14 -36 25 -42 25 -5 0
-20 8 -33 18 -25 18 -91 44 -106 41 -4 -1 -17 1 -28 5 -11 4 -29 11 -40 15
-27 10 -281 3 -336 -9 -90 -19 -163 -42 -176 -56 -8 -8 -20 -14 -28 -14 -7 0
-15 -7 -19 -15 -3 -8 -11 -15 -17 -15 -7 0 -20 -6 -28 -13 -9 -8 -43 -24 -76
-37 -33 -13 -66 -28 -74 -34 -16 -12 -50 -32 -71 -42 -8 -4 -30 -18 -47 -31
-18 -13 -33 -21 -33 -18 0 4 -17 -6 -37 -22 -21 -16 -57 -37 -80 -48 -24 -10
-43 -22 -43 -27 0 -4 -8 -8 -18 -8 -10 0 -23 -5 -29 -11 -6 -6 -34 -23 -61
-38 -27 -14 -73 -39 -103 -55 -30 -16 -67 -39 -82 -52 -15 -13 -43 -28 -62
-33 -19 -5 -48 -19 -64 -30 -16 -12 -34 -21 -40 -21 -7 0 -23 -11 -36 -24 -27
-27 -54 -43 -135 -77 -30 -13 -68 -34 -85 -48 -16 -13 -71 -43 -120 -66 -50
-23 -97 -50 -104 -59 -19 -22 -53 -40 -132 -67 -34 -12 -71 -30 -81 -39 -24
-22 -212 -58 -393 -75 -27 -3 -59 -9 -70 -14 -29 -13 -106 -32 -135 -33 -14 0
-34 -4 -45 -8 -44 -17 -112 -28 -141 -23 -19 3 -36 -1 -45 -9 -8 -8 -20 -13
-27 -10 -12 4 -133 -23 -237 -54 -27 -8 -81 -17 -120 -20 -38 -3 -75 -10 -81
-15 -7 -5 -54 -14 -105 -20 -52 -6 -103 -14 -114 -19 -11 -5 -33 -11 -50 -15
-16 -4 -47 -20 -69 -36 -22 -16 -45 -29 -52 -29 -21 0 -74 -34 -80 -52 -3 -9
-20 -26 -38 -37 -52 -33 -164 -169 -197 -241 -48 -102 -52 -110 -61 -110 -4 0
-8 -8 -8 -18 0 -10 -5 -23 -11 -29 -6 -6 -17 -22 -23 -35 -16 -32 -53 -34
-107 -4 -26 13 -73 29 -105 36 -33 6 -68 15 -79 20 -39 17 -88 30 -112 30 -13
0 -31 4 -41 9 -21 12 -52 23 -72 26 -35 7 -210 45 -265 58 -76 19 -201 61
-230 78 -5 3 -32 11 -60 18 -98 24 -195 55 -195 62 0 11 -84 35 -185 55 -89
17 -124 28 -175 54 -19 9 -62 25 -95 35 -33 9 -68 21 -78 26 -10 5 -23 7 -28
3 -6 -3 -21 -2 -32 4 -12 6 -53 20 -92 33 -38 12 -74 25 -80 29 -5 4 -41 15
-80 25 -38 9 -77 20 -85 23 -8 3 -33 11 -55 18 -47 14 -144 54 -234 95 -57 27
-131 89 -131 110 0 5 -11 14 -24 21 -23 12 -86 118 -86 144 0 5 -14 32 -31 59
-40 63 -59 115 -107 290 -17 63 -20 298 -7 507 4 55 2 105 -3 115 -6 11 -6 46
0 93 11 80 18 91 98 144 46 30 162 76 193 76 13 0 30 7 37 15 7 8 27 15 45 15
18 0 38 6 44 14 7 8 34 22 62 32 27 10 49 21 49 25 0 4 26 13 58 19 31 6 71
17 87 25 17 7 55 23 85 35 30 12 77 32 104 46 28 13 57 24 65 24 23 0 81 22
139 52 29 16 60 28 70 28 9 0 30 7 46 15 15 8 35 15 44 15 14 0 33 7 137 55
68 31 102 43 150 55 28 7 57 14 65 18 8 3 19 4 24 3 4 -1 14 3 20 9 7 5 16 7
19 3 4 -3 7 -1 7 6 0 15 94 58 141 64 19 2 45 9 56 16 12 6 30 11 40 11 24 0
95 36 110 56 6 8 50 23 101 34 78 16 166 52 197 81 5 5 19 9 31 9 13 0 26 5
29 10 3 6 16 10 29 10 35 0 153 40 167 56 6 8 19 14 29 14 9 0 29 9 43 20 14
11 36 20 50 20 14 0 27 4 29 8 2 4 37 19 78 31 41 13 109 40 150 59 41 20 86
37 100 40 14 2 29 7 35 13 5 5 23 9 40 9 16 0 77 23 134 51 57 28 119 53 137
56 19 3 34 9 34 13 0 4 18 10 40 14 22 3 40 10 40 15 0 11 115 52 162 58 21 3
42 11 49 19 6 8 19 14 29 14 10 0 23 6 29 14 7 8 38 22 69 31 111 31 188 58
260 92 40 18 107 43 148 54 41 11 101 33 132 48 31 16 81 36 110 47 28 10 52
21 52 25 0 3 17 9 39 12 21 2 76 23 123 46 46 22 94 41 106 41 12 0 30 4 40 9
9 5 55 22 102 37 47 16 102 39 123 51 21 13 52 26 70 29 46 9 149 45 167 60 8
6 30 15 48 19 18 4 45 13 60 21 15 8 35 14 44 14 9 0 19 4 22 9 5 8 73 24 91
22 2 0 28 12 57 28 29 16 87 40 129 55 42 14 96 35 120 47 69 34 98 45 203 78
55 18 105 39 111 48 9 12 81 35 195 60 14 3 43 18 65 33 22 15 69 36 105 45
36 10 72 24 80 30 8 7 21 10 27 8 13 -5 110 38 154 68 14 10 46 21 70 25 50 8
138 40 249 90 42 19 90 34 107 34 18 0 34 4 37 9 3 4 20 11 38 15 18 4 59 20
90 36 31 17 65 30 74 30 10 0 25 6 33 13 9 8 52 24 96 36 44 13 100 36 125 52
26 16 80 36 125 45 44 10 82 21 85 24 3 4 30 15 60 25 30 10 73 28 95 41 36
20 67 31 115 37 18 3 103 47 110 57 3 4 46 17 95 29 50 13 119 38 155 56 100
51 158 71 188 66 6 -1 12 2 12 7 0 6 20 13 45 16 24 4 48 13 52 20 11 18 54
39 137 66 49 17 83 37 121 72 29 26 57 48 62 48 12 0 63 56 63 69 0 4 15 22
34 38 19 16 38 41 41 56 4 15 16 32 26 38 11 5 19 16 19 24 0 8 4 15 8 15 10
0 32 60 32 88 0 12 4 22 9 22 4 0 7 48 6 108 -1 59 2 126 8 150 7 30 6 46 -3
56 -7 9 -9 31 -5 58 4 33 0 56 -18 98 -30 73 -56 121 -75 139 -8 8 -21 29 -28
46 -14 35 -157 185 -176 185 -7 0 -33 18 -58 40 -24 22 -48 40 -53 40 -4 0
-25 8 -45 18 -31 15 -67 18 -237 19 -110 1 -227 -3 -260 -8z m-9275 -4609 c14
-10 32 -28 40 -40 22 -33 63 -70 71 -64 4 2 26 -14 49 -36 23 -22 46 -40 52
-40 20 0 118 -76 129 -100 32 -68 37 -85 45 -150 2 -19 -2 -91 -11 -160 -18
-152 -19 -251 -5 -350 6 -41 10 -86 9 -100 -1 -14 1 -32 4 -40 3 -8 6 -22 6
-30 2 -46 10 -100 21 -139 14 -54 3 -81 -48 -111 -31 -19 -45 -20 -151 -14
-64 4 -260 8 -436 10 -416 5 -439 7 -560 64 -44 20 -96 42 -116 49 -23 7 -55
32 -85 68 -27 30 -61 67 -75 82 -29 30 -56 110 -66 197 -13 119 -3 347 17 385
6 10 10 28 10 41 0 28 31 96 56 123 11 11 28 36 38 55 31 54 48 70 111 101 33
17 62 34 65 38 13 20 76 42 147 52 148 21 302 59 483 120 66 22 161 17 200
-11z m7358 -2750 c2 -6 10 -10 17 -10 19 0 45 -62 45 -109 0 -23 -7 -58 -15
-78 -8 -19 -15 -48 -15 -63 0 -14 -3 -30 -6 -33 -4 -4 -9 -23 -11 -44 -4 -38
-6 -56 -18 -128 -8 -56 -26 -110 -64 -200 -11 -27 -28 -81 -36 -120 -9 -38
-20 -90 -25 -114 -14 -63 -33 -87 -83 -104 -62 -21 -126 -8 -178 36 -21 19
-69 48 -106 67 -38 18 -71 38 -75 44 -4 6 -12 11 -18 11 -6 0 -14 5 -18 10 -4
6 -20 16 -37 23 -16 8 -43 20 -58 28 -16 8 -34 14 -41 14 -7 0 -38 16 -69 34
-32 19 -70 37 -85 39 -15 3 -67 12 -117 20 -49 9 -171 26 -270 38 -205 24
-254 41 -279 94 -9 18 -16 40 -16 49 0 19 100 86 128 86 10 0 31 14 48 31 29
31 74 55 147 81 22 7 55 27 75 44 41 34 51 38 352 125 46 14 179 38 235 43 17
2 44 6 60 9 17 4 57 9 90 12 33 3 67 7 75 9 39 8 76 19 85 26 12 9 99 37 135
44 38 7 145 -3 148 -14z m-3774 -1897 c34 -32 65 -64 70 -72 9 -15 10 -122 2
-156 -3 -11 -14 -60 -25 -110 -11 -49 -20 -90 -22 -90 -6 0 -16 -94 -32 -300
-14 -182 -32 -255 -60 -255 -13 0 -57 17 -142 55 -16 7 -43 17 -60 21 -16 4
-41 12 -55 19 -84 43 -252 90 -357 99 -113 11 -197 26 -283 53 -8 2 -40 6 -70
8 -30 2 -71 7 -90 10 -19 3 -51 7 -70 10 -138 18 -190 41 -160 69 8 7 38 26
65 41 28 15 59 35 70 44 11 10 36 23 55 30 52 19 105 45 108 54 2 4 9 7 16 7
6 0 19 8 28 18 23 23 46 42 53 42 17 0 123 55 155 80 19 15 64 42 100 60 36
18 83 45 105 60 22 15 51 31 65 35 32 9 96 44 135 71 17 12 61 38 99 58 38 19
80 45 93 58 20 19 68 33 127 37 11 0 46 -24 80 -56z m439 -405 c15 -7 27 -16
27 -20 0 -5 6 -8 14 -8 7 0 35 -26 61 -57 27 -32 55 -65 64 -73 41 -40 161
-179 184 -215 14 -22 40 -56 57 -75 18 -19 43 -57 57 -85 14 -27 38 -64 53
-81 15 -18 40 -58 55 -90 15 -33 41 -75 56 -95 16 -20 29 -41 29 -47 0 -15 62
-154 82 -183 10 -15 29 -64 44 -110 14 -46 32 -98 40 -116 8 -17 14 -34 14
-39 0 -4 11 -31 25 -59 24 -52 28 -67 64 -215 10 -41 30 -110 45 -152 14 -43
28 -92 31 -110 26 -160 56 -291 75 -329 l22 -46 -20 -47 c-33 -74 -78 -87
-387 -111 -196 -15 -206 -17 -260 -40 -38 -17 -148 -37 -166 -31 -8 3 -28 7
-46 10 -23 3 -49 23 -100 76 -37 40 -70 77 -72 83 -2 6 -11 19 -20 28 -9 10
-33 48 -53 86 -36 67 -37 70 -38 188 -1 66 -6 206 -11 310 -5 105 -11 262 -14
350 -3 88 -13 219 -21 290 -19 152 -15 398 10 730 20 264 26 295 60 295 7 0
24 -6 39 -12z m-2328 -687 c50 -5 140 -19 200 -32 61 -12 133 -23 160 -25 126
-7 214 -13 265 -18 30 -3 87 -8 125 -11 39 -4 86 -10 105 -15 19 -4 59 -11 89
-14 30 -4 93 -19 140 -35 47 -16 112 -34 144 -42 32 -7 60 -16 63 -21 3 -4 16
-8 29 -8 12 0 49 -14 81 -31 32 -17 85 -39 118 -50 64 -22 118 -47 126 -59 9
-14 85 -50 117 -56 18 -3 31 -10 28 -14 -3 -5 3 -6 13 -3 48 12 90 -67 98
-182 1 -27 6 -95 9 -150 11 -153 13 -257 8 -271 -2 -7 -22 -15 -43 -19 -38 -6
-40 -5 -139 92 -112 109 -127 123 -138 123 -4 0 -28 23 -54 50 -26 28 -52 50
-58 50 -6 0 -43 22 -83 49 -76 50 -199 108 -303 143 -72 24 -260 32 -405 17
-52 -6 -102 -10 -110 -11 -17 0 -144 -36 -175 -49 -11 -5 -58 -13 -105 -19
-47 -6 -116 -17 -155 -25 -38 -8 -140 -24 -226 -35 -86 -11 -169 -24 -185 -29
-16 -6 -78 -17 -139 -26 -153 -22 -227 -41 -320 -85 -44 -20 -105 -48 -135
-61 -30 -13 -74 -37 -97 -52 -23 -15 -84 -42 -135 -59 -51 -17 -109 -41 -129
-54 -20 -12 -81 -35 -135 -49 -54 -15 -105 -31 -113 -36 -45 -24 -116 -50
-208 -74 -56 -15 -111 -36 -122 -47 -12 -10 -68 -41 -125 -67 -57 -27 -110
-57 -117 -68 -8 -10 -48 -36 -89 -57 -41 -22 -86 -51 -100 -64 -14 -13 -47
-35 -75 -48 -68 -34 -95 -50 -108 -63 -6 -6 -19 -11 -28 -11 -9 0 -30 -7 -45
-15 -16 -8 -38 -15 -49 -15 -11 0 -85 -17 -165 -37 -125 -32 -161 -37 -261
-37 l-116 -1 -58 57 -58 57 6 64 c3 35 12 82 20 103 8 21 25 75 37 119 12 44
35 98 51 119 16 22 29 46 29 53 0 7 3 13 8 13 4 0 13 14 21 31 12 27 64 86
102 115 8 6 25 25 39 42 14 18 29 32 34 32 4 0 26 14 48 32 50 39 144 64 168
44 22 -20 155 -76 179 -76 11 0 22 -4 25 -9 3 -5 37 -16 75 -26 97 -24 269
-17 332 12 24 12 55 24 69 28 59 16 154 58 174 77 11 11 51 35 87 53 37 18 97
53 134 79 37 25 74 46 82 46 17 0 92 37 115 57 9 8 22 12 29 7 7 -4 10 -3 6 3
-8 13 25 36 74 52 20 6 54 27 77 46 22 19 44 35 49 35 5 0 27 9 49 19 22 11
52 23 66 26 14 4 38 19 55 34 16 15 58 40 93 55 35 16 85 44 110 61 25 18 70
45 100 61 51 26 74 42 104 70 6 5 45 25 86 44 41 19 88 43 104 54 17 11 53 28
80 37 53 19 91 19 271 0z m1199 -5821 c3 -74 8 -328 12 -565 3 -236 11 -435
16 -442 10 -12 9 -393 -1 -393 -4 0 -11 4 -16 9 -6 5 -45 28 -88 51 -43 23
-93 50 -110 60 -52 31 -201 115 -212 119 -5 2 -35 23 -65 45 -30 22 -58 41
-62 41 -7 0 -159 115 -238 180 -75 62 -155 143 -185 185 -24 35 -24 36 -9 95
9 33 17 67 19 75 21 104 98 252 192 370 82 103 348 365 384 378 5 2 22 16 38
30 57 54 79 72 87 72 4 0 17 9 29 20 12 12 60 47 106 78 l84 58 7 -165 c4 -92
10 -227 12 -301z m-16559 -653 c6 -7 19 -17 30 -21 16 -6 17 -9 5 -16 -12 -8
-9 -10 10 -10 16 0 34 -11 51 -33 35 -44 45 -62 31 -53 -13 8 -14 6 -17 -134
-1 -53 -10 -124 -19 -160 -10 -36 -18 -87 -18 -115 -1 -139 11 -308 26 -370 9
-38 19 -86 22 -105 3 -19 7 -41 10 -48 2 -8 -5 -50 -16 -94 -11 -44 -17 -84
-15 -89 8 -13 -30 -91 -40 -82 -4 5 -5 2 -1 -4 10 -19 -4 -39 -15 -22 -6 10
-8 6 -7 -11 2 -16 -2 -24 -9 -22 -7 1 -13 -3 -13 -8 0 -5 -13 -10 -30 -10 -21
0 -30 5 -30 16 0 8 -4 13 -10 9 -17 -10 -70 56 -70 88 0 28 -33 94 -54 109 -7
5 -7 8 -1 8 6 1 -15 13 -45 28 -37 18 -55 33 -54 45 1 9 -2 17 -7 17 -5 0 -9
6 -9 14 0 7 -7 19 -15 26 -16 13 -21 45 -6 36 5 -4 7 3 4 14 -3 12 1 22 11 26
9 3 16 17 16 29 0 13 4 26 8 29 13 8 15 126 2 141 -7 8 -9 19 -5 25 3 5 3 10
-2 10 -12 0 -43 58 -43 80 0 24 -21 72 -37 85 -18 16 -35 92 -27 130 6 36 39
69 57 58 6 -3 8 -2 4 3 -3 5 11 23 30 39 79 67 80 68 87 127 4 31 14 62 22 69
8 6 14 27 14 45 0 19 5 34 10 34 6 0 18 17 28 38 9 20 22 41 27 45 15 11 98
-1 110 -16z m18298 -1966 c37 -17 67 -35 67 -40 0 -12 78 -91 91 -91 6 0 9 -7
6 -15 -4 -8 -2 -17 3 -20 5 -3 23 -31 40 -63 27 -47 33 -73 40 -152 7 -84 -4
-337 -15 -348 -8 -8 -25 10 -25 27 0 30 -100 107 -182 141 -15 7 -37 27 -49
46 -11 19 -25 34 -29 34 -20 0 -29 85 -31 275 -1 239 -1 247 9 242 4 -3 37
-19 75 -36z m-6963 -5188 c0 -5 11 -9 25 -9 14 -1 42 -19 66 -43 23 -23 60
-46 81 -53 21 -6 38 -16 38 -22 0 -6 17 -12 37 -13 28 -1 44 -10 65 -34 15
-17 28 -36 28 -40 0 -5 5 -9 11 -9 6 0 33 -11 60 -25 27 -13 65 -27 84 -31 20
-3 45 -18 58 -33 12 -14 31 -28 42 -29 11 -2 35 -19 54 -38 20 -20 44 -34 58
-34 13 0 37 -9 52 -21 36 -26 147 -58 225 -65 32 -3 76 -14 96 -24 21 -11 64
-22 95 -25 32 -3 61 -8 66 -11 5 -3 31 2 58 10 27 8 51 12 54 10 9 -10 132 19
182 41 28 13 59 26 71 29 23 7 64 73 64 104 0 24 46 82 65 82 15 0 13 24 -4
65 -8 17 -15 51 -18 77 -3 38 0 49 14 56 21 11 112 23 205 27 73 4 123 12 148
26 19 11 209 37 216 30 3 -3 37 -7 77 -8 40 -2 86 -10 103 -18 18 -8 60 -18
95 -21 38 -3 90 -18 127 -35 35 -16 70 -29 79 -29 10 0 13 -6 9 -16 -4 -11 -1
-14 13 -9 12 4 30 -4 52 -22 47 -39 68 -61 64 -65 -2 -2 10 -5 28 -6 21 -2 40
-12 54 -30 12 -15 22 -23 23 -18 0 5 7 3 15 -4 8 -7 12 -17 8 -22 -3 -6 0 -9
7 -6 16 5 45 -22 54 -50 4 -11 14 -23 22 -26 8 -3 12 -11 9 -16 -4 -6 -3 -9 2
-8 20 7 153 -92 153 -114 0 -11 61 -68 73 -68 5 0 26 -17 47 -37 58 -57 88
-81 95 -75 3 3 5 0 5 -6 0 -7 8 -12 19 -12 10 0 26 -11 34 -24 9 -13 32 -29
52 -36 19 -6 35 -16 35 -21 0 -4 15 -16 32 -25 30 -16 31 -18 13 -25 -18 -7
-17 -8 6 -8 14 -1 43 -12 63 -26 20 -14 43 -25 49 -25 7 0 22 -7 32 -16 11 -8
43 -28 70 -43 28 -15 49 -33 48 -39 -3 -12 2 -14 52 -17 17 -1 39 -4 50 -7 11
-4 32 -9 48 -12 15 -4 27 -12 27 -20 0 -9 9 -12 28 -8 25 5 26 4 12 -13 -14
-17 -13 -18 12 -12 23 6 30 3 41 -19 8 -16 17 -22 21 -16 8 14 71 4 116 -18
47 -24 106 -39 176 -46 32 -3 74 -8 94 -12 36 -8 76 -7 165 1 89 9 132 23 187
59 14 10 37 18 50 18 16 0 19 3 10 9 -9 5 -2 16 28 36 22 15 40 31 40 35 0 3
12 13 26 20 14 8 32 30 40 49 8 20 23 45 34 56 10 11 21 32 24 48 9 48 17 67
30 67 8 0 16 17 20 40 4 24 14 45 26 52 11 7 20 23 20 35 0 12 4 24 8 27 9 5
25 74 37 153 4 24 11 45 15 48 15 9 19 -69 25 -400 7 -435 15 -788 19 -920 3
-60 7 -357 10 -660 4 -302 8 -579 11 -615 10 -146 23 -655 24 -957 1 -177 5
-324 10 -327 5 -3 9 -141 10 -308 1 -166 4 -306 8 -311 9 -15 35 -1211 26
-1229 -9 -17 -32 7 -48 48 -14 36 -23 46 -46 51 -20 4 -35 16 -45 36 -17 32
-63 76 -80 77 -6 0 -38 26 -71 59 -33 32 -71 61 -85 64 -13 4 -46 16 -74 28
-27 13 -68 23 -92 25 -37 1 -49 8 -81 42 l-38 40 -94 -2 c-91 -3 -128 -8 -149
-21 -6 -3 -10 0 -11 7 0 7 -5 4 -11 -8 -9 -20 -79 -44 -128 -44 -10 0 -32 -12
-49 -26 -17 -14 -35 -23 -41 -19 -5 3 -10 2 -10 -2 0 -5 -8 -10 -17 -11 -33
-3 -48 -8 -71 -21 -13 -7 -30 -10 -37 -7 -10 3 -12 0 -8 -11 5 -13 2 -15 -14
-11 -15 4 -23 0 -26 -13 -3 -13 -15 -20 -34 -21 -15 0 -35 -2 -43 -3 -45 -4
-53 53 -13 93 25 24 47 60 91 146 8 16 23 31 33 33 11 3 19 10 19 15 0 5 3 7
8 5 7 -5 0 173 -13 334 -8 94 -8 93 53 129 27 17 32 25 32 58 0 44 40 99 63
86 6 -4 9 -3 4 1 -4 5 3 20 17 34 24 27 44 99 45 163 0 20 10 55 22 78 19 36
21 50 15 123 -4 45 -7 95 -7 111 1 55 129 188 203 211 24 7 71 13 106 13 102
0 123 37 60 104 -16 17 -33 39 -39 50 -5 10 -16 18 -24 18 -8 0 -15 4 -15 10
0 5 -13 23 -30 40 -16 17 -30 26 -30 20 0 -7 -8 -9 -20 -5 -12 4 -49 6 -82 6
-34 0 -113 9 -176 20 -144 24 -182 24 -239 -2 -25 -11 -51 -18 -58 -15 -8 3
-19 -2 -25 -10 -7 -8 -18 -14 -26 -14 -7 0 -29 -7 -47 -16 -32 -15 -37 -15
-70 1 -34 16 -70 60 -95 119 -7 16 -11 31 -8 33 3 3 -4 14 -15 26 -10 11 -19
28 -19 38 0 9 -7 22 -16 30 -9 7 -30 33 -47 58 -17 25 -36 51 -42 57 -6 6 -28
47 -50 90 -21 43 -56 100 -78 126 -21 27 -50 71 -63 98 -15 31 -34 54 -49 60
-16 6 -34 30 -53 68 -32 68 -58 102 -160 208 -74 77 -128 165 -116 187 4 7 4
9 -1 5 -11 -10 -47 71 -38 85 3 5 1 7 -5 3 -10 -6 -28 30 -24 47 3 9 -49 56
-82 74 -12 6 -21 15 -22 20 -2 23 -26 64 -44 75 -11 7 -20 19 -20 27 0 7 -23
39 -50 71 -28 32 -55 72 -61 88 -6 18 -22 35 -39 42 -28 11 -106 103 -122 142
-4 10 -19 23 -33 28 -14 5 -25 14 -25 19 0 5 -16 15 -35 21 -45 15 -65 35 -65
65 0 17 -16 34 -61 65 -33 23 -68 44 -77 48 -40 17 -92 55 -97 70 -3 9 -22 25
-43 34 -20 10 -44 22 -52 27 -8 5 -27 12 -42 15 -27 6 -55 27 -115 88 -26 26
-35 30 -45 20 -14 -14 -54 -16 -62 -3 -3 4 -26 14 -51 21 -25 7 -50 21 -56 31
-5 11 -17 19 -27 19 -9 0 -30 7 -46 15 -15 8 -39 15 -52 15 -12 0 -26 5 -29
10 -9 14 -72 40 -115 46 -19 3 -69 16 -110 29 -41 13 -86 25 -100 28 -47 10
-73 16 -106 27 -19 6 -39 8 -45 4 -7 -4 -81 -8 -165 -9 -92 -1 -158 -6 -166
-13 -7 -6 -64 -15 -126 -20 -87 -7 -117 -13 -133 -28 -16 -15 -42 -20 -116
-24 -72 -4 -98 -10 -107 -22 -11 -15 -50 -24 -145 -32 -24 -2 -55 -13 -70 -24
-14 -10 -38 -23 -51 -27 -14 -4 -34 -13 -45 -19 -11 -7 -40 -16 -65 -20 -57
-9 -100 -27 -100 -43 0 -7 -15 -19 -32 -27 -18 -7 -50 -28 -72 -45 -21 -17
-49 -31 -61 -31 -13 0 -33 -11 -46 -25 -28 -30 -78 -59 -87 -51 -3 3 -13 -1
-23 -10 -14 -13 -21 -14 -41 -3 -13 7 -77 14 -150 17 -71 3 -128 9 -128 13 0
5 -40 9 -89 9 -49 0 -102 5 -118 11 -15 6 -46 14 -68 16 -22 3 -58 12 -80 20
-40 15 -87 28 -157 45 -20 5 -52 24 -72 42 -19 19 -37 32 -40 28 -3 -3 -6 2
-6 11 0 9 -7 17 -15 17 -8 0 -24 19 -36 42 -12 23 -28 48 -35 56 -22 22 -42
64 -49 107 -4 22 -12 48 -17 58 -27 53 -17 399 12 417 6 4 12 46 15 96 4 68
10 95 25 116 11 15 25 50 31 77 7 35 19 58 39 74 15 14 30 35 32 48 1 13 12
28 23 33 11 5 31 26 45 48 14 22 33 44 44 50 10 5 32 25 48 44 17 19 34 31 39
28 5 -3 9 2 9 10 0 9 5 16 10 16 6 0 10 7 10 16 0 24 58 73 117 100 28 13 54
28 58 33 3 5 18 12 35 16 16 3 32 15 35 25 3 10 18 21 32 25 15 3 38 15 51 26
14 10 33 19 42 19 10 0 31 7 46 15 16 8 37 15 47 15 11 0 30 9 44 20 16 13 41
20 67 20 23 0 59 9 80 20 23 11 69 22 110 25 39 2 100 7 135 10 35 2 66 7 69
10 8 8 172 6 172 -2z"/>
<path d="M21205 15640 c3 -5 13 -10 21 -10 8 0 12 5 9 10 -3 6 -13 10 -21 10
-8 0 -12 -4 -9 -10z"/>
<path d="M21810 15116 c0 -20 25 -37 44 -30 23 9 20 19 -9 32 -33 15 -35 15
-35 -2z"/>
<path d="M22148 14883 c7 -3 16 -2 19 1 4 3 -2 6 -13 5 -11 0 -14 -3 -6 -6z"/>
<path d="M22236 14843 c-6 -14 -5 -15 5 -6 7 7 10 15 7 18 -3 3 -9 -2 -12 -12z"/>
<path d="M22400 14783 c0 -5 4 -14 9 -22 6 -10 10 -10 16 -1 4 6 14 9 24 6 12
-5 11 -2 -3 9 -21 16 -46 20 -46 8z"/>
<path d="M23330 14680 c-9 -6 -10 -10 -3 -10 6 0 15 5 18 10 8 12 4 12 -15 0z"/>
<path d="M16900 14386 c0 -2 8 -10 18 -17 15 -13 16 -12 3 4 -13 16 -21 21
-21 13z"/>
<path d="M18724 14349 c-2 -4 9 -7 26 -7 16 1 30 4 30 8 0 8 -50 8 -56 -1z"/>
<path d="M20165 14230 c-3 -5 1 -10 9 -10 9 0 16 5 16 10 0 6 -4 10 -9 10 -6
0 -13 -4 -16 -10z"/>
<path d="M18080 14070 c0 -5 7 -10 15 -10 8 0 15 5 15 10 0 6 -7 10 -15 10 -8
0 -15 -4 -15 -10z"/>
<path d="M21255 13430 c-3 -5 1 -10 9 -10 9 0 16 5 16 10 0 6 -4 10 -9 10 -6
0 -13 -4 -16 -10z"/>
<path d="M21737 12796 c-3 -8 -2 -18 3 -21 13 -8 20 9 11 24 -6 10 -10 9 -14
-3z"/>
<path d="M21830 12555 c0 -21 2 -24 14 -13 7 7 11 19 9 25 -9 22 -23 14 -23
-12z"/>
<path d="M22162 12089 c1 -13 8 -23 13 -21 15 3 12 35 -3 40 -9 3 -13 -3 -10
-19z"/>
<path d="M22220 11985 c0 -8 5 -15 10 -15 6 0 10 7 10 15 0 8 -4 15 -10 15 -5
0 -10 -7 -10 -15z"/>
<path d="M23017 11385 c-4 -8 -2 -17 3 -20 6 -4 10 3 10 14 0 25 -6 27 -13 6z"/>
<path d="M22860 10940 c0 -5 5 -10 11 -10 5 0 7 5 4 10 -3 6 -8 10 -11 10 -2
0 -4 -4 -4 -10z"/>
<path d="M17740 24629 c0 -5 5 -7 10 -4 6 3 10 8 10 11 0 2 -4 4 -10 4 -5 0
-10 -5 -10 -11z"/>
<path d="M7535 23850 c-3 -5 -1 -10 4 -10 6 0 11 5 11 10 0 6 -2 10 -4 10 -3
0 -8 -4 -11 -10z"/>
<path d="M11886 19991 c-4 -5 -2 -12 3 -15 5 -4 12 -2 15 3 4 5 2 12 -3 15 -5
4 -12 2 -15 -3z"/>
<path d="M6250 19670 c-9 -6 -10 -10 -3 -10 6 0 15 5 18 10 8 12 4 12 -15 0z"/>
<path d="M9890 18556 c0 -2 7 -6 15 -10 8 -3 15 -1 15 4 0 6 -7 10 -15 10 -8
0 -15 -2 -15 -4z"/>
<path d="M10560 18390 c0 -5 4 -10 9 -10 6 0 13 5 16 10 3 6 -1 10 -9 10 -9 0
-16 -4 -16 -10z"/>
<path d="M6765 17620 c-3 -5 -1 -10 4 -10 6 0 11 5 11 10 0 6 -2 10 -4 10 -3
0 -8 -4 -11 -10z"/>
<path d="M10610 15540 c0 -5 5 -10 11 -10 5 0 7 5 4 10 -3 6 -8 10 -11 10 -2
0 -4 -4 -4 -10z"/>
<path d="M25392 14425 c0 -16 2 -22 5 -12 2 9 2 23 0 30 -3 6 -5 -1 -5 -18z"/>
<path d="M7040 12584 c0 -17 22 -14 28 4 2 7 -3 12 -12 12 -9 0 -16 -7 -16
-16z"/>
<path d="M5796 12472 c-8 -13 -5 -764 4 -822 4 -33 8 122 9 388 0 243 -1 442
-3 442 -3 0 -7 -3 -10 -8z"/>
<path d="M18541 6564 c0 -11 3 -14 6 -6 3 7 2 16 -1 19 -3 4 -6 -2 -5 -13z"/>
<path d="M18471 6464 c0 -11 3 -14 6 -6 3 7 2 16 -1 19 -3 4 -6 -2 -5 -13z"/>
<path d="M17250 5610 c0 -5 7 -10 15 -10 8 0 15 5 15 10 0 6 -7 10 -15 10 -8
0 -15 -4 -15 -10z"/>
<path d="M15008 5323 c6 -2 18 -2 25 0 6 3 1 5 -13 5 -14 0 -19 -2 -12 -5z"/>
<path d="M8169 1903 c-13 -16 -12 -17 4 -4 16 13 21 21 13 21 -2 0 -10 -8 -17
-17z"/>
<path d="M8700 810 c0 -5 7 -10 15 -10 8 0 15 5 15 10 0 6 -7 10 -15 10 -8 0
-15 -4 -15 -10z"/>
</g>
</svg>
